<svg width="28" height="25" viewBox="0 0 28 25" fill="none" xmlns="http://www.w3.org/2000/svg">
<path d="M2.1433 23.5061C1.4558 22.3495 0.737395 21.2867 0.190944 20.142C-0.0302659 19.6787 -0.0767882 18.9365 0.144694 18.495C0.796703 17.1952 1.61367 15.9768 2.38406 14.7377C2.8226 14.0324 3.25252 13.3136 3.77239 12.6701C4.0378 12.3416 4.46488 12.0929 4.86885 11.9382C5.48594 11.7018 5.95496 11.5042 6.3317 10.8061C6.80841 9.92276 7.54415 10.6783 8.09787 11.0245C8.73026 11.4198 8.40163 11.9032 8.11101 12.3341C8.03187 12.4514 7.85457 12.5027 7.65163 12.628C8.98806 14.4947 7.86793 16.0282 6.99733 17.5712C5.75024 19.7815 4.45509 21.9648 3.17832 24.1584C3.07237 24.3405 2.95008 24.513 2.76897 24.7925C2.50623 24.2443 2.34387 23.9056 2.1433 23.5061Z" fill="#04C168"/>
<path d="M17.2196 0.911398C18.1155 2.39043 19.0622 3.84195 19.8868 5.35957C20.3293 6.17377 20.676 7.08013 20.8471 7.9861C20.9529 8.5465 20.6476 9.18429 20.5068 9.88794C21.3617 10.8953 21.2485 11.4509 19.8967 11.8589C19.6337 11.9383 18.9824 11.6487 18.9877 11.5564C19.0287 10.8347 18.455 10.7166 18.0445 10.6782C16.4106 10.525 15.7931 9.17556 15.082 8.09149C13.9085 6.30231 12.9658 4.36232 11.9238 2.48699C11.6931 2.07166 11.4539 1.66095 11.2502 1.12394C13.2611 0.970305 15.2404 0.940851 17.2196 0.911398Z" fill="#04C168"/>
<path d="M16.9004 24.7878C16.9004 24.7878 16.887 24.8005 16.8351 24.7419C16.6541 24.6596 16.5249 24.636 16.3958 24.6123C16.3958 24.6123 16.4096 24.611 16.4071 24.5579C16.3336 24.4742 16.2625 24.4435 16.1914 24.4129C15.7309 24.0648 15.2703 23.7167 14.7303 23.3086C13.407 23.5973 13.2706 23.3801 13.5958 21.1102C14.5354 21.2836 15.2819 20.9241 15.9126 20.2051C16.1185 19.9703 16.507 19.8952 16.9768 19.7562C20.1415 19.7609 23.1414 19.7637 26.1412 19.7457C26.7307 19.7422 27.1892 19.8156 27.118 20.5624C26.3668 21.9148 25.6156 23.2673 24.7257 24.676C24.2357 24.7522 23.8844 24.7887 23.5331 24.7894C21.3222 24.7933 19.1113 24.7892 16.9004 24.7878Z" fill="#04C168"/>
<path d="M27.0416 18.9654C25.488 18.9704 24.0114 18.8938 22.5483 19.0006C21.5858 19.0708 21.135 18.5873 20.7273 17.8889C20.1095 16.8303 19.4991 15.7671 18.8593 14.722C18.3942 13.9623 18.566 13.5982 19.3637 13.2955C20.3148 12.9346 21.2434 12.485 22.1225 11.9725C23.1212 11.3903 23.4372 11.3752 24.0235 12.3531C25.173 14.2703 26.2865 16.2097 27.3689 18.1652C27.4624 18.3342 27.214 18.6917 27.0416 18.9654Z" fill="#04C168"/>
<path d="M27.0416 18.9654C25.488 18.9704 24.0114 18.8938 22.5483 19.0006C21.5858 19.0708 21.135 18.5873 20.7273 17.8889C20.1095 16.8303 19.4991 15.7671 18.8593 14.722C18.3942 13.9623 18.566 13.5982 19.3637 13.2955C20.3148 12.9346 21.2434 12.485 22.1225 11.9725C23.1212 11.3903 23.4372 11.3752 24.0235 12.3531C25.173 14.2703 26.2865 16.2097 27.3689 18.1652C27.4624 18.3342 27.214 18.6917 27.0416 18.9654Z" fill="black" fill-opacity="0.35"/>
<path d="M9.18657 10.4123C8.34925 9.97696 7.55779 9.5624 6.72518 9.26125C6.06785 9.02347 5.8206 8.55101 6.28383 7.73734C7.52262 5.56145 8.83113 3.42508 10.1175 1.27632C10.1617 1.20251 10.2655 1.16427 10.4675 1.01864C10.9639 1.87883 11.45 2.71366 11.9283 3.55292C12.2448 4.10816 12.4688 4.73968 12.878 5.21323C13.6102 6.06064 13.2847 6.76776 12.7973 7.53853C12.2171 8.45598 11.657 9.3875 11.1244 10.3332C10.4546 11.5226 10.1826 11.5544 9.18657 10.4123Z" fill="#04C168"/>
<path d="M9.18657 10.4123C8.34925 9.97696 7.55779 9.5624 6.72518 9.26125C6.06785 9.02347 5.8206 8.55101 6.28383 7.73734C7.52262 5.56145 8.83113 3.42508 10.1175 1.27632C10.1617 1.20251 10.2655 1.16427 10.4675 1.01864C10.9639 1.87883 11.45 2.71366 11.9283 3.55292C12.2448 4.10816 12.4688 4.73968 12.878 5.21323C13.6102 6.06064 13.2847 6.76776 12.7973 7.53853C12.2171 8.45598 11.657 9.3875 11.1244 10.3332C10.4546 11.5226 10.1826 11.5544 9.18657 10.4123Z" fill="black" fill-opacity="0.35"/>
<path d="M12.3399 20.5574C12.2256 21.6718 12.1225 22.7821 12.4524 23.8867C12.5182 24.1071 12.4323 24.3727 12.2751 24.6727C9.44007 24.7488 6.74619 24.7752 4.05231 24.7754C3.90492 24.7754 3.75751 24.5575 3.61011 24.441C4.5127 22.8988 5.41531 21.3565 6.47226 19.7826C8.06684 19.751 9.50808 19.7831 10.9469 19.7374C11.6293 19.7158 12.14 19.8336 12.3399 20.5574Z" fill="#04C168"/>
<path d="M12.3399 20.5574C12.2256 21.6718 12.1225 22.7821 12.4524 23.8867C12.5182 24.1071 12.4323 24.3727 12.2751 24.6727C9.44007 24.7488 6.74619 24.7752 4.05231 24.7754C3.90492 24.7754 3.75751 24.5575 3.61011 24.441C4.5127 22.8988 5.41531 21.3565 6.47226 19.7826C8.06684 19.751 9.50808 19.7831 10.9469 19.7374C11.6293 19.7158 12.14 19.8336 12.3399 20.5574Z" fill="black" fill-opacity="0.35"/>
<path d="M27.1795 20.5298C27.1891 19.8155 26.7306 19.7421 26.1411 19.7456C23.1413 19.7636 20.1414 19.7608 17.0471 19.7593C17.2464 19.6876 17.5398 19.5666 17.8338 19.5651C20.5804 19.5508 23.3271 19.557 26.0738 19.5573C26.5724 19.5573 27.0711 19.5573 27.7538 19.5573C27.5642 19.905 27.4027 20.2012 27.1795 20.5298Z" fill="#04C168"/>
<path d="M3.52427 24.4413C3.75772 24.5574 3.90513 24.7753 4.05252 24.7753C6.7464 24.775 9.44028 24.7487 12.2245 24.72C12.1632 24.8075 12.0121 24.9851 11.8599 24.986C9.22246 25.0021 6.58491 24.9926 3.94743 24.9999C3.54184 25.0011 3.20941 24.9914 3.52427 24.4413Z" fill="#A2C8A7"/>
<path d="M16.9575 24.8586C19.1114 24.789 21.3223 24.7931 23.5332 24.7892C23.8845 24.7885 24.2358 24.752 24.677 24.7168C24.6738 24.7983 24.5806 24.9797 24.4877 24.9795C21.9966 24.9742 19.5056 24.9503 16.9575 24.8586Z" fill="#ACE4AD"/>
<path d="M12.3997 20.5078C12.1401 19.8336 11.6295 19.7158 10.947 19.7375C9.50823 19.7831 8.06698 19.751 6.53149 19.7501C7.05826 19.6851 7.67924 19.5818 8.30254 19.5651C9.42611 19.5349 10.5516 19.5763 11.6753 19.5491C12.3498 19.5328 12.6577 19.7593 12.3997 20.5078Z" fill="#43874D"/>
<path d="M17.1794 0.833617C15.2405 0.94104 13.2612 0.970494 11.2297 1.06152C10.7785 0.747783 11.0301 0.700632 11.3885 0.703941C13.3053 0.721604 15.2222 0.738495 17.1794 0.833617Z" fill="#B0F3B0"/>
<path d="M16.4302 24.672C16.525 24.6359 16.6542 24.6596 16.8289 24.7351C16.7378 24.7685 16.6011 24.7501 16.4302 24.672Z" fill="#ACE4AD"/>
<path d="M16.2092 24.4652C16.2625 24.4437 16.3336 24.4743 16.4077 24.5649C16.3496 24.589 16.2883 24.5532 16.2092 24.4652Z" fill="#ACE4AD"/>
</svg>
