<svg width="170" height="28" viewBox="0 0 170 28" fill="none" xmlns="http://www.w3.org/2000/svg">
<path d="M15.7008 25L8.05275 14.024H2.06875V10.792H12.7888L14.0048 9.576V7.048L12.7888 5.832H5.30075V8.584H2.06875V2.6H14.1328L17.2368 5.704V10.92L14.1328 14.024H11.9888L19.6368 25H15.7008ZM2.06875 16.232H5.30075V25H2.06875V16.232ZM22.85 14.024V2.6H38.018V5.832H26.082V10.792H34.274V14.024H22.85ZM26.082 16.232H22.85V25H38.018V21.768H26.082V16.232ZM41.225 21.896V5.704L44.329 2.6H56.361V5.832H45.673L44.457 7.048V20.552L45.673 21.768H56.361V25H44.329L41.225 21.896ZM71.6328 25H62.6727L59.5688 21.896V5.704L62.6727 2.6H71.6328L74.7368 5.704V21.896L71.6328 25ZM70.2888 5.832H64.0168L62.8008 7.048V20.552L64.0168 21.768H70.2888L71.5048 20.552V7.048L70.2888 5.832ZM95.0638 21.768V25H77.9438V21.768H95.0638ZM77.9438 2.6H81.1758V19.56H77.9438V2.6ZM115.376 21.768V25H98.2563V21.768H115.376ZM98.2563 2.6H101.488V19.56H98.2563V2.6Z" fill="#0B1C26"/>
<path d="M135.548 14.024H130.076V10.792H136.476L137.724 9.576V7.048L136.508 5.832H125.788V2.6H137.82L140.924 5.704V10.92L138.972 12.872L140.924 14.856V21.896L137.82 25H125.788V21.768H136.508L137.724 20.552V16.168L135.548 14.024Z" fill="#04C168"/>
<path d="M146.494 2.1433C147.65 1.4558 148.713 0.737395 149.858 0.190944C150.321 -0.0302659 151.063 -0.0767882 151.505 0.144694C152.805 0.796703 154.023 1.61367 155.262 2.38406C155.968 2.8226 156.686 3.25252 157.33 3.77239C157.658 4.0378 157.907 4.46488 158.062 4.86885C158.298 5.48594 158.496 5.95496 159.194 6.3317C160.077 6.80841 159.322 7.54415 158.976 8.09787C158.58 8.73026 158.097 8.40163 157.666 8.11101C157.549 8.03187 157.497 7.85457 157.372 7.65163C155.505 8.98806 153.972 7.86793 152.429 6.99733C150.218 5.75024 148.035 4.45509 145.842 3.17832C145.66 3.07237 145.487 2.95008 145.208 2.76897C145.756 2.50623 146.094 2.34387 146.494 2.1433Z" fill="#04C168"/>
<path d="M169.089 17.2198C167.61 18.1156 166.158 19.0623 164.64 19.887C163.826 20.3294 162.92 20.6761 162.014 20.8472C161.453 20.953 160.816 20.6477 160.112 20.5069C159.105 21.3618 158.549 21.2486 158.141 19.8968C158.062 19.6338 158.351 18.9825 158.444 18.9878C159.165 19.0288 159.283 18.4551 159.322 18.0446C159.475 16.4107 160.824 15.7932 161.909 15.0821C163.698 13.9086 165.638 12.9659 167.513 11.9239C167.928 11.6932 168.339 11.454 168.876 11.2504C169.03 13.2612 169.059 15.2405 169.089 17.2198Z" fill="#04C168"/>
<path d="M145.212 16.9004C145.212 16.9004 145.199 16.887 145.258 16.8351C145.34 16.6541 145.364 16.5249 145.388 16.3958C145.388 16.3958 145.389 16.4096 145.442 16.4071C145.526 16.3336 145.556 16.2625 145.587 16.1915C145.935 15.7309 146.283 15.2703 146.691 14.7303C146.403 13.407 146.62 13.2706 148.89 13.5959C148.716 14.5354 149.076 15.2819 149.795 15.9126C150.03 16.1185 150.105 16.507 150.244 16.9768C150.239 20.1415 150.236 23.1414 150.254 26.1412C150.258 26.7307 150.184 27.1892 149.438 27.118C148.085 26.3668 146.733 25.6156 145.324 24.7257C145.248 24.2357 145.211 23.8844 145.211 23.5331C145.207 21.3222 145.211 19.1113 145.212 16.9004Z" fill="#04C168"/>
<path d="M151.035 27.0417C151.03 25.4881 151.106 24.0115 150.999 22.5484C150.929 21.5859 151.413 21.135 152.111 20.7274C153.17 20.1096 154.233 19.4992 155.278 18.8593C156.038 18.3942 156.402 18.5661 156.704 19.3638C157.065 20.3149 157.515 21.2435 158.027 22.1226C158.61 23.1213 158.625 23.4373 157.647 24.0236C155.73 25.1731 153.79 26.2866 151.835 27.369C151.666 27.4625 151.308 27.2141 151.035 27.0417Z" fill="#04C168"/>
<path d="M151.035 27.0417C151.03 25.4881 151.106 24.0115 150.999 22.5484C150.929 21.5859 151.413 21.135 152.111 20.7274C153.17 20.1096 154.233 19.4992 155.278 18.8593C156.038 18.3942 156.402 18.5661 156.704 19.3638C157.065 20.3149 157.515 21.2435 158.027 22.1226C158.61 23.1213 158.625 23.4373 157.647 24.0236C155.73 25.1731 153.79 26.2866 151.835 27.369C151.666 27.4625 151.308 27.2141 151.035 27.0417Z" fill="black" fill-opacity="0.35"/>
<path d="M159.588 9.18667C160.023 8.34935 160.438 7.55789 160.739 6.72528C160.977 6.06795 161.449 5.8207 162.263 6.28393C164.439 7.52272 166.575 8.83123 168.724 10.1176C168.797 10.1618 168.836 10.2656 168.981 10.4676C168.121 10.964 167.286 11.4501 166.447 11.9284C165.892 12.2449 165.26 12.4689 164.787 12.8781C163.939 13.6103 163.232 13.2848 162.461 12.7974C161.544 12.2172 160.613 11.6571 159.667 11.1245C158.477 10.4547 158.446 10.1827 159.588 9.18667Z" fill="#04C168"/>
<path d="M159.588 9.18667C160.023 8.34935 160.438 7.55789 160.739 6.72528C160.977 6.06795 161.449 5.8207 162.263 6.28393C164.439 7.52272 166.575 8.83123 168.724 10.1176C168.797 10.1618 168.836 10.2656 168.981 10.4676C168.121 10.964 167.286 11.4501 166.447 11.9284C165.892 12.2449 165.26 12.4689 164.787 12.8781C163.939 13.6103 163.232 13.2848 162.461 12.7974C161.544 12.2172 160.613 11.6571 159.667 11.1245C158.477 10.4547 158.446 10.1827 159.588 9.18667Z" fill="black" fill-opacity="0.35"/>
<path d="M149.443 12.34C148.328 12.2257 147.218 12.1226 146.113 12.4525C145.893 12.5184 145.627 12.4324 145.327 12.2752C145.251 9.44019 145.225 6.74631 145.225 4.05243C145.225 3.90504 145.443 3.75763 145.559 3.61022C147.101 4.51282 148.643 5.41542 150.217 6.47237C150.249 8.06696 150.217 9.5082 150.263 10.947C150.284 11.6294 150.166 12.1401 149.443 12.34Z" fill="#04C168"/>
<path d="M149.443 12.34C148.328 12.2257 147.218 12.1226 146.113 12.4525C145.893 12.5184 145.627 12.4324 145.327 12.2752C145.251 9.44019 145.225 6.74631 145.225 4.05243C145.225 3.90504 145.443 3.75763 145.559 3.61022C147.101 4.51282 148.643 5.41542 150.217 6.47237C150.249 8.06696 150.217 9.5082 150.263 10.947C150.284 11.6294 150.166 12.1401 149.443 12.34Z" fill="black" fill-opacity="0.35"/>
<path d="M149.47 27.1796C150.185 27.1892 150.258 26.7307 150.254 26.1412C150.236 23.1414 150.239 20.1415 150.241 17.0472C150.312 17.2465 150.433 17.5399 150.435 17.8339C150.449 20.5805 150.443 23.3272 150.443 26.0739C150.443 26.5725 150.443 27.0712 150.443 27.7539C150.095 27.5643 149.799 27.4028 149.47 27.1796Z" fill="#04C168"/>
<path d="M145.559 3.52418C145.443 3.75763 145.225 3.90504 145.225 4.05244C145.225 6.74632 145.251 9.4402 145.28 12.2244C145.193 12.1631 145.015 12.012 145.014 11.8598C144.998 9.22238 145.007 6.58483 145 3.94734C144.999 3.54176 145.009 3.20932 145.559 3.52418Z" fill="#A2C8A7"/>
<path d="M145.141 16.9574C145.211 19.1113 145.207 21.3222 145.211 23.5331C145.211 23.8844 145.248 24.2357 145.283 24.6769C145.202 24.6737 145.02 24.5805 145.021 24.4876C145.026 21.9965 145.05 19.5055 145.141 16.9574Z" fill="#ACE4AD"/>
<path d="M149.492 12.3996C150.166 12.1401 150.284 11.6294 150.263 10.947C150.217 9.50819 150.249 8.06695 150.25 6.53146C150.315 7.05823 150.418 7.6792 150.435 8.30251C150.465 9.42608 150.424 10.5515 150.451 11.6752C150.467 12.3497 150.241 12.6577 149.492 12.3996Z" fill="#43874D"/>
<path d="M169.166 17.1794C169.059 15.2405 169.03 13.2612 168.938 11.2297C169.252 10.7785 169.299 11.0301 169.296 11.3885C169.278 13.3053 169.262 15.2222 169.166 17.1794Z" fill="#B0F3B0"/>
<path d="M145.328 16.4301C145.364 16.5249 145.34 16.6541 145.265 16.8288C145.231 16.7377 145.25 16.601 145.328 16.4301Z" fill="#ACE4AD"/>
<path d="M145.535 16.2093C145.556 16.2625 145.526 16.3336 145.435 16.4077C145.411 16.3496 145.447 16.2883 145.535 16.2093Z" fill="#ACE4AD"/>
</svg>
