<svg width="150" height="44" viewBox="0 0 150 44" fill="none" xmlns="http://www.w3.org/2000/svg">
<path d="M8.496 10.4C11.824 10.4 14.3733 10.9973 16.144 12.192C17.9147 13.3653 18.8 15.2 18.8 17.696C18.8 19.2533 18.4373 20.5227 17.712 21.504C17.008 22.464 15.984 23.2213 14.64 23.776C15.088 24.3307 15.5573 24.9707 16.048 25.696C16.5387 26.4 17.0187 27.1467 17.488 27.936C17.9787 28.704 18.448 29.5147 18.896 30.368C19.344 31.2 19.76 32.0213 20.144 32.832H14.544C14.1387 32.1067 13.7227 31.3707 13.296 30.624C12.8907 29.8773 12.464 29.152 12.016 28.448C11.5893 27.744 11.1627 27.0827 10.736 26.464C10.3093 25.824 9.88267 25.248 9.456 24.736H6.992V32.832H2V10.976C3.088 10.7627 4.208 10.6133 5.36 10.528C6.53333 10.4427 7.57867 10.4 8.496 10.4ZM8.784 14.656C8.42133 14.656 8.09067 14.6667 7.792 14.688C7.51467 14.7093 7.248 14.7307 6.992 14.752V20.768H8.4C10.2773 20.768 11.6213 20.5333 12.432 20.064C13.2427 19.5947 13.648 18.7947 13.648 17.664C13.648 16.576 13.232 15.808 12.4 15.36C11.5893 14.8907 10.384 14.656 8.784 14.656Z" fill="#0B1C26"/>
<path d="M21.4112 24.544C21.4112 23.0507 21.6353 21.7493 22.0833 20.64C22.5526 19.5093 23.1606 18.5707 23.9072 17.824C24.6539 17.0773 25.5073 16.512 26.4673 16.128C27.4486 15.744 28.4513 15.552 29.4753 15.552C31.8646 15.552 33.7526 16.288 35.1393 17.76C36.5259 19.2107 37.2192 21.3547 37.2192 24.192C37.2192 24.4693 37.2086 24.7787 37.1873 25.12C37.1659 25.44 37.1446 25.728 37.1232 25.984H26.3073C26.4139 26.9653 26.8726 27.744 27.6833 28.32C28.4939 28.896 29.5819 29.184 30.9473 29.184C31.8219 29.184 32.6752 29.1093 33.5072 28.96C34.3606 28.7893 35.0539 28.5867 35.5872 28.352L36.2272 32.224C35.9712 32.352 35.6299 32.48 35.2033 32.608C34.7766 32.736 34.2966 32.8427 33.7633 32.928C33.2512 33.0347 32.6966 33.12 32.0993 33.184C31.5019 33.248 30.9046 33.28 30.3073 33.28C28.7926 33.28 27.4699 33.056 26.3393 32.608C25.2299 32.16 24.3019 31.552 23.5553 30.784C22.8299 29.9947 22.2859 29.0667 21.9233 28C21.5819 26.9333 21.4112 25.7813 21.4112 24.544ZM32.6112 22.72C32.5899 22.3147 32.5153 21.92 32.3873 21.536C32.2806 21.152 32.0993 20.8107 31.8433 20.512C31.6086 20.2133 31.2993 19.968 30.9153 19.776C30.5526 19.584 30.0939 19.488 29.5393 19.488C29.0059 19.488 28.5473 19.584 28.1632 19.776C27.7792 19.9467 27.4593 20.1813 27.2033 20.48C26.9473 20.7787 26.7446 21.1307 26.5953 21.536C26.4673 21.92 26.3713 22.3147 26.3073 22.72H32.6112Z" fill="#0B1C26"/>
<path d="M40.0988 24.416C40.0988 23.2 40.2908 22.0587 40.6748 20.992C41.0801 19.904 41.6561 18.9653 42.4027 18.176C43.1494 17.3653 44.0561 16.7253 45.1227 16.256C46.1894 15.7867 47.4054 15.552 48.7708 15.552C49.6668 15.552 50.4881 15.6373 51.2347 15.808C51.9814 15.9573 52.7068 16.1813 53.4108 16.48L52.4188 20.288C51.9708 20.1173 51.4801 19.968 50.9468 19.84C50.4134 19.712 49.8161 19.648 49.1548 19.648C47.7468 19.648 46.6908 20.0853 45.9868 20.96C45.3041 21.8347 44.9627 22.9867 44.9627 24.416C44.9627 25.9307 45.2827 27.104 45.9227 27.936C46.5841 28.768 47.7254 29.184 49.3468 29.184C49.9228 29.184 50.5414 29.1307 51.2028 29.024C51.8641 28.9173 52.4721 28.7467 53.0268 28.512L53.6987 32.416C53.1441 32.6507 52.4508 32.8533 51.6188 33.024C50.7868 33.1947 49.8694 33.28 48.8667 33.28C47.3307 33.28 46.0081 33.056 44.8988 32.608C43.7894 32.1387 42.8721 31.5093 42.1468 30.72C41.4428 29.9307 40.9201 29.0027 40.5788 27.936C40.2588 26.848 40.0988 25.6747 40.0988 24.416Z" fill="#0B1C26"/>
<path d="M71.8303 24.384C71.8303 25.7067 71.6382 26.9227 71.2542 28.032C70.8702 29.12 70.3156 30.0587 69.5902 30.848C68.8649 31.616 67.9902 32.2133 66.9662 32.64C65.9636 33.0667 64.8329 33.28 63.5742 33.28C62.3369 33.28 61.2063 33.0667 60.1823 32.64C59.1796 32.2133 58.3156 31.616 57.5902 30.848C56.8649 30.0587 56.2996 29.12 55.8942 28.032C55.4889 26.9227 55.2863 25.7067 55.2863 24.384C55.2863 23.0613 55.4889 21.856 55.8942 20.768C56.3209 19.68 56.8969 18.752 57.6222 17.984C58.3689 17.216 59.2436 16.6187 60.2463 16.192C61.2703 15.7653 62.3796 15.552 63.5742 15.552C64.7902 15.552 65.8996 15.7653 66.9023 16.192C67.9263 16.6187 68.8009 17.216 69.5263 17.984C70.2516 18.752 70.8169 19.68 71.2223 20.768C71.6276 21.856 71.8303 23.0613 71.8303 24.384ZM66.9662 24.384C66.9662 22.912 66.6676 21.76 66.0703 20.928C65.4943 20.0747 64.6622 19.648 63.5742 19.648C62.4862 19.648 61.6436 20.0747 61.0462 20.928C60.4489 21.76 60.1502 22.912 60.1502 24.384C60.1502 25.856 60.4489 27.0293 61.0462 27.904C61.6436 28.7573 62.4862 29.184 63.5742 29.184C64.6622 29.184 65.4943 28.7573 66.0703 27.904C66.6676 27.0293 66.9662 25.856 66.9662 24.384Z" fill="#0B1C26"/>
<path d="M82.2438 33.152C80.8571 33.1307 79.7264 32.9813 78.8518 32.704C77.9984 32.4267 77.3157 32.0427 76.8037 31.552C76.3131 31.04 75.9717 30.432 75.7797 29.728C75.6091 29.0027 75.5238 28.192 75.5238 27.296V8.768L80.2917 8V26.336C80.2917 26.7627 80.3237 27.1467 80.3877 27.488C80.4517 27.8293 80.5691 28.1173 80.7398 28.352C80.9318 28.5867 81.1984 28.7787 81.5397 28.928C81.8811 29.0773 82.3397 29.1733 82.9157 29.216L82.2438 33.152Z" fill="#0B1C26"/>
<path d="M92.3688 33.152C90.9821 33.1307 89.8514 32.9813 88.9768 32.704C88.1234 32.4267 87.4407 32.0427 86.9287 31.552C86.4381 31.04 86.0967 30.432 85.9047 29.728C85.7341 29.0027 85.6488 28.192 85.6488 27.296V8.768L90.4167 8V26.336C90.4167 26.7627 90.4487 27.1467 90.5127 27.488C90.5767 27.8293 90.6941 28.1173 90.8648 28.352C91.0568 28.5867 91.3234 28.7787 91.6647 28.928C92.0061 29.0773 92.4647 29.1733 93.0407 29.216L92.3688 33.152Z" fill="#0B1C26"/>
<path d="M148.823 15.9537L143.263 13.0424C142.904 12.8544 142.456 12.9782 142.254 13.3209L139.569 17.8795C139.364 18.2268 139.49 18.6684 139.85 18.8659L150 24.438V17.8616C150 17.0656 149.548 16.3334 148.823 15.9537V15.9537Z" fill="#04C168" fill-opacity="0.8"/>
<path d="M150 24.4379L139.85 18.866C139.49 18.6681 139.364 18.2268 139.569 17.8796L140.269 16.6897C140.221 16.9798 140.359 17.2816 140.639 17.4352L150 22.5751V24.4379Z" fill="#04C168"/>
<path d="M144.617 30.5347L148.76 28.5267C149.52 28.1583 150 27.4077 150 26.587V20.7812L142.162 25.2388C142.155 25.2242 142.148 25.2095 142.142 25.1949C142.011 24.9145 141.594 24.926 141.48 25.2131L139.948 29.0622C139.877 29.2406 139.969 29.4407 140.154 29.5092L144.158 30.993C144.455 31.1027 144.74 30.8146 144.617 30.5347V30.5347Z" fill="#05F283"/>
<path d="M144.159 30.9931L140.155 29.5089C139.969 29.4407 139.877 29.2403 139.948 29.0621L140.412 27.8974L144.159 29.2858C144.371 29.3647 144.578 29.2387 144.633 29.0578C144.684 28.8856 144.801 28.7385 144.967 28.658L148.76 26.8194C149.52 26.4513 150 25.7009 150 24.8798V26.5871C150 27.4076 149.52 28.158 148.76 28.5268L144.617 30.5347C144.74 30.8149 144.455 31.1025 144.159 30.9931Z" fill="#05F283" fill-opacity="0.8"/>
<path d="M128.644 26.6558C128.874 26.6018 128.973 26.3154 128.791 26.1406L125.674 23.1322C125.549 23.0121 125.348 23.0121 125.223 23.1322L122.094 26.1522C121.914 26.3258 122.01 26.6092 122.236 26.6663V31.1075C122.236 31.9251 122.712 32.6734 123.468 33.0433L128.644 35.5775V26.6558H128.644Z" fill="#04C168" fill-opacity="0.8"/>
<path d="M128.644 30.4049L126.385 31.845C125.875 32.1706 125.223 32.2066 124.677 31.9394L123.467 31.3471C122.712 30.9777 122.235 30.2291 122.235 29.4117V31.1074C122.235 31.9248 122.712 32.6734 123.467 33.0434L128.643 35.5774V30.4049H128.644Z" fill="#04C168"/>
<path d="M122.831 20.595H128.341C128.755 20.595 129.091 20.271 129.091 19.8714V7.95202L123.255 11.0195C122.531 11.3997 122.081 12.1309 122.081 12.9257V19.8714C122.081 20.271 122.417 20.595 122.831 20.595Z" fill="#04C168" fill-opacity="0.8"/>
<path d="M129.089 13.0071L124.508 10.36L129.089 7.95201V13.0071Z" fill="#04C168"/>
<path d="M128.34 20.5949H122.83C122.416 20.5949 122.081 20.271 122.081 19.8715V17.973C122.081 18.3725 122.416 18.6964 122.83 18.6964H128.34C128.754 18.6964 129.09 18.3725 129.09 17.973V19.8715C129.09 20.271 128.754 20.5949 128.34 20.5949Z" fill="#04C168"/>
<path d="M133.96 14.7719L138.134 14.2366C138.341 14.2102 138.485 14.0274 138.458 13.8284L137.901 9.7848C137.859 9.4803 137.475 9.36683 137.262 9.5754L133.45 7.02342C132.751 6.55551 131.839 6.50802 131.092 6.90064L125.808 9.67771L133.614 14.1869C133.612 14.1885 133.611 14.19 133.61 14.1916C133.407 14.449 133.628 14.8144 133.96 14.7719Z" fill="#05F283"/>
<path d="M133.61 14.1914C133.611 14.1901 133.612 14.1884 133.614 14.1871L125.808 9.67777L127.573 8.75037L133.927 12.4206L134.103 12.5224C134.199 12.578 134.241 12.6868 134.22 12.7932C134.22 12.7937 134.219 12.7942 134.219 12.7948C134.178 13.0211 134.373 13.2532 134.641 13.2184L138.31 12.7482L138.458 13.8281C138.485 14.0272 138.34 14.2104 138.135 14.2368L133.96 14.7721C133.628 14.8146 133.407 14.4489 133.61 14.1914V14.1914Z" fill="#05F283" fill-opacity="0.8"/>
<path d="M133.736 36.7973L138.978 33.3065C139.3 33.0924 139.397 32.6758 139.202 32.3493L136.481 27.8001C136.265 27.439 135.779 27.3282 135.418 27.5581L125.363 33.9712L131.441 36.9466C132.176 37.3067 133.057 37.2495 133.736 36.7973V36.7973Z" fill="#05F283"/>
<path d="M131.441 36.9467L125.363 33.9709L126.929 32.9728L131.441 35.1816C132.176 35.5418 133.057 35.4846 133.736 35.0323L138.792 31.665L139.202 32.3496C139.397 32.676 139.3 33.0927 138.978 33.3065L133.736 36.7974C133.057 37.2497 132.176 37.3069 131.441 36.9467V36.9467Z" fill="#05F283" fill-opacity="0.8"/>
<path d="M108.296 33.48C107.72 33.48 107.112 33.4373 106.472 33.352C105.832 33.288 105.213 33.192 104.616 33.064C104.019 32.936 103.475 32.7973 102.984 32.648C102.493 32.4987 102.109 32.36 101.832 32.232L102.76 28.264C103.315 28.4987 104.019 28.7547 104.872 29.032C105.747 29.288 106.824 29.416 108.104 29.416C109.576 29.416 110.653 29.1387 111.336 28.584C112.019 28.0293 112.36 27.2827 112.36 26.344C112.36 25.768 112.232 25.288 111.976 24.904C111.741 24.4987 111.411 24.1787 110.984 23.944C110.557 23.688 110.045 23.5173 109.448 23.432C108.872 23.3253 108.253 23.272 107.592 23.272H105.736V19.432H107.848C108.317 19.432 108.765 19.3893 109.192 19.304C109.64 19.2187 110.035 19.08 110.376 18.888C110.717 18.6747 110.984 18.3973 111.176 18.056C111.389 17.6933 111.496 17.2453 111.496 16.712C111.496 16.3067 111.411 15.9547 111.24 15.656C111.069 15.3573 110.845 15.112 110.568 14.92C110.312 14.728 110.003 14.5893 109.64 14.504C109.299 14.3973 108.947 14.344 108.584 14.344C107.667 14.344 106.813 14.4827 106.024 14.76C105.256 15.0373 104.552 15.3787 103.912 15.784L102.216 12.296C102.557 12.0827 102.952 11.8587 103.4 11.624C103.869 11.3893 104.381 11.176 104.936 10.984C105.491 10.792 106.077 10.632 106.696 10.504C107.336 10.376 108.008 10.312 108.712 10.312C110.013 10.312 111.133 10.472 112.072 10.792C113.032 11.0907 113.821 11.528 114.44 12.104C115.059 12.6587 115.517 13.32 115.816 14.088C116.115 14.8347 116.264 15.656 116.264 16.552C116.264 17.4267 116.019 18.28 115.528 19.112C115.037 19.9227 114.376 20.5413 113.544 20.968C114.696 21.4373 115.581 22.1413 116.2 23.08C116.84 23.9973 117.16 25.1067 117.16 26.408C117.16 27.432 116.989 28.3813 116.648 29.256C116.307 30.1093 115.773 30.856 115.048 31.496C114.323 32.1147 113.395 32.6053 112.264 32.968C111.155 33.3093 109.832 33.48 108.296 33.48Z" fill="#0B1C26"/>
</svg>
