<svg xmlns="http://www.w3.org/2000/svg" version="1.1" xmlns:xlink="http://www.w3.org/1999/xlink" width="512" height="512" x="0" y="0" viewBox="0 0 512.04 512.04" style="enable-background:new 0 0 512 512" xml:space="preserve" class=""><g><path fill="#fabc00" d="m303.48 114.64 11.1 64.69-.46.34-58.1-30.55-58.1 30.55-.46-.34 11.1-64.69-47-45.81.18-.55 64.95-9.44L255.72 0h.6l29.03 58.84 64.95 9.44.18.55z" opacity="1" data-original="#fabc00"></path><g fill="#00ab00"><path d="M435.63 262.07v61.03l-179.61 92.52L76.41 323.1v-61.03l179.61 92.52z" fill="#00ab00" opacity="1" data-original="#00ab00"></path><path d="M435.63 356.85v62.67l-179.61 92.52-179.61-92.52v-62.67l179.61 92.52zM435.63 167.29v61.03l-179.61 92.52-179.61-92.52v-61.03l179.61 92.52z" fill="#00ab00" opacity="1" data-original="#00ab00"></path></g><path fill="#ff8908" d="m314.12 179.67-58.1-30.55V0h.3l29.03 58.84 64.95 9.44.18.55-47 45.81 11.1 64.69z" opacity="1" data-original="#ff8908"></path><path fill="#007f40" d="M435.63 167.29v61.03l-179.61 92.52v-61.03zM256.02 354.59l179.61-92.52v61.03l-179.61 92.52zM256.02 449.37l179.61-92.52v62.67l-179.61 92.52z" opacity="1" data-original="#007f40" class=""></path></g></svg>