<svg width="64" height="64" viewBox="0 0 64 64" fill="none" xmlns="http://www.w3.org/2000/svg">
<g clip-path="url(#clip0_27972_408)">
<path d="M49.3863 52.0538L45.4156 40.5864L29.5723 34.5151C27.9058 33.8764 27.0728 32.0074 27.7115 30.3409C28.3502 28.6744 30.2193 27.8413 31.8853 28.48L49.1333 35.0899C49.5735 35.2585 49.9714 35.5213 50.2992 35.86C50.6269 36.1986 50.8767 36.6049 51.0308 37.0503L55.4937 49.939C56.0777 51.6255 55.1842 53.4659 53.4976 54.0498C51.8072 54.6353 49.9688 53.7364 49.3863 52.0538Z" fill="#022340"/>
<path d="M36.4485 21.9649C35.716 21.9649 34.986 21.6709 34.4504 21.0904C33.4324 19.9873 33.5017 18.2681 34.6048 17.2504L46.8938 5.91263C47.1292 5.69509 47.4014 5.52099 47.6975 5.39838L60.2425 0.207134C61.6292 -0.366617 63.2185 0.292009 63.7923 1.67926C64.3665 3.06588 63.7073 4.65526 62.3205 5.22901L50.223 10.2353L38.2903 21.2451C37.7891 21.7087 37.1313 21.9657 36.4485 21.9649Z" fill="#022340"/>
<path d="M39.773 14.4101H1.61475C0.723125 14.4101 0 15.1327 0 16.025V34.6525C0 35.8243 1.209 36.6061 2.27787 36.1251L39.7735 19.2476V14.4102L39.773 14.4101Z" fill="url(#paint0_linear_27972_408)"/>
<path d="M9.30614 53.0034C8.19764 51.6045 8.43239 49.5722 9.83139 48.4634L19.8251 40.543L27.6454 29.5205C28.6781 28.0645 30.6953 27.7221 32.1508 28.7549C33.6068 29.7871 33.9491 31.8047 32.9169 33.2602L24.8294 44.6591C24.6524 44.9087 24.4409 45.1318 24.201 45.3217L13.846 53.5287C12.4423 54.6411 10.4106 54.397 9.30614 53.0034Z" fill="#022340"/>
<path d="M25.8364 32.0381L31.5074 34.6645C35.3364 36.438 39.8302 34.2588 40.8087 30.1543L43.7803 17.6855L35.9996 15.831C32.7071 15.0464 29.4019 17.0791 28.6172 20.371L25.8364 32.0381Z" fill="url(#paint1_linear_27972_408)"/>
<path d="M34.9313 15.6747C32.02 15.5039 29.3169 17.436 28.6173 20.371L27.5767 24.7372L34.9312 21.4272L34.9313 15.6747Z" fill="#022340"/>
<path d="M28.0451 50.4795C26.6198 50.4795 25.4235 49.3691 25.3356 47.9272L24.4396 33.2676C24.4138 32.8444 24.4873 32.421 24.6544 32.0312L30.5929 18.1773C31.1841 16.7973 32.7814 16.1588 34.1613 16.75C35.5413 17.3413 36.1799 18.939 35.5885 20.3184L29.9039 33.58L30.7599 47.5961C30.8518 49.0941 29.7115 50.3827 28.2135 50.474C28.1569 50.4774 28.1008 50.4789 28.045 50.4794L28.0451 50.4795Z" fill="#022340"/>
<path d="M63.7929 1.67924C63.2187 0.291993 61.6293 -0.366757 60.2424 0.206993L62.3206 5.22899C63.7073 4.65524 64.3667 3.06587 63.7929 1.67924ZM25.3354 47.9272C25.4233 49.3691 26.6201 50.4795 28.0448 50.479C28.1006 50.479 28.1572 50.4775 28.2133 50.4741C29.7113 50.3824 30.8516 49.0937 30.7597 47.5957L25.3354 47.9272ZM45.3007 14.4101C45.3007 17.4629 42.8257 19.9375 39.7729 19.9375C36.7202 19.9375 34.2454 17.4629 34.2454 14.4101C34.2454 11.3569 36.7202 8.88237 39.7729 8.88237C42.8257 8.88237 45.3007 11.3569 45.3007 14.4101Z" fill="white"/>
</g>
<defs>
<linearGradient id="paint0_linear_27972_408" x1="19.8867" y1="14.4101" x2="19.8867" y2="36.2692" gradientUnits="userSpaceOnUse">
<stop/>
<stop offset="1" stop-color="#011526"/>
</linearGradient>
<linearGradient id="paint1_linear_27972_408" x1="34.8084" y1="15.6627" x2="34.8084" y2="35.2864" gradientUnits="userSpaceOnUse">
<stop stop-color="white"/>
<stop offset="1" stop-color="#04C168"/>
</linearGradient>
<clipPath id="clip0_27972_408">
<rect width="64" height="64" fill="white"/>
</clipPath>
</defs>
</svg>
