<svg xmlns="http://www.w3.org/2000/svg" version="1.1" xmlns:xlink="http://www.w3.org/1999/xlink" width="512" height="512" x="0" y="0" viewBox="0 0 512 512" style="enable-background:new 0 0 512 512" xml:space="preserve" class=""><g><path fill="#00969b" d="M135.267 359.514 39.666 512H256l10-76.243-10-76.243z" opacity="1" data-original="#00969b" class=""></path><path fill="#006468" d="M376.733 359.514H256V512h226.957z" opacity="1" data-original="#006468"></path><path fill="#ffb655" d="m139.562 149.313-30-3V0h30z" opacity="1" data-original="#ffb655" class=""></path><path fill="#ff7c48" d="m402.438 146.625-30 3V0h30zM413.701 359.514h-36.968v56.884c0 52.799 53.425 95.602 106.224 95.602h26.346v-56.884c-.001-52.799-42.803-95.602-95.602-95.602z" opacity="1" data-original="#ff7c48" class=""></path><path fill="#ffb655" d="M135.267 416.398v-56.884H98.299c-52.799 0-95.602 42.802-95.602 95.602V512h36.968c52.8 0 95.602-42.802 95.602-95.602z" opacity="1" data-original="#ffb655" class=""></path><path fill="#00ccb3" d="M256 0c-66.852 0-122.903 44.702-140.603 105.396l140.603 15L276 57z" opacity="1" data-original="#00ccb3" class=""></path><path fill="#00969b" d="M256 0v120.396l140.603-15C378.903 44.702 322.853 0 256 0z" opacity="1" data-original="#00969b" class=""></path><path fill="#00ccb3" d="m160.398 215.997-47.529 15 6.465 159.65H256L276 333l-20-53.268z" opacity="1" data-original="#00ccb3" class=""></path><path fill="#00969b" d="m399.131 230.997-47.529-15L256 279.732v110.915h136.666z" opacity="1" data-original="#00969b" class=""></path><path fill="#145383" d="m121.874 120.396-11.902 15a147.425 147.425 0 0 0-.288 16.965l1.97 48.637 48.745 15L256 279.732 276 185l-20-64.604z" opacity="1" data-original="#145383" class=""></path><path fill="#001737" d="m402.028 135.395-11.902-15H256v159.336l95.602-63.734 48.745-15 1.969-48.637c.232-5.727.129-11.388-.288-16.965z" opacity="1" data-original="#001737" class=""></path><path fill="#ffeb99" d="M115.397 105.396a145.54 145.54 0 0 0-5.419 30H256l10-15-10-15z" opacity="1" data-original="#ffeb99"></path><path fill="#ffb655" d="M396.603 105.396H256v30h146.022a145.462 145.462 0 0 0-5.419-30z" opacity="1" data-original="#ffb655" class=""></path><path fill="#ffeb99" d="M164.94 200.997h-53.286l1.215 30h42.988L256 297.759l10-18.027-10-18.028z" opacity="1" data-original="#ffeb99"></path><path fill="#ffb655" d="M256 261.704v36.055l100.144-66.762h42.987l1.215-30H347.06z" opacity="1" data-original="#ffb655" class=""></path></g></svg>