<svg width="64" height="64" viewBox="0 0 64 64" fill="none" xmlns="http://www.w3.org/2000/svg">
<g clip-path="url(#clip0_28113_298)">
<path d="M38.9923 20.917H25.0073C24.0101 20.9173 23.0247 20.7014 22.1191 20.2841C21.2134 19.8668 20.409 19.2582 19.7613 18.5H19.4888V20.284C19.4893 21.0698 19.5731 21.8534 19.7388 22.6215L20.4933 26.067C20.8873 27.8725 21.1518 29.799 21.8483 31.517C22.6716 33.5336 24.0768 35.2592 25.8848 36.4739C27.6928 37.6886 29.8216 38.3373 31.9998 38.3373C34.1779 38.3373 36.3067 37.6886 38.1147 36.4739C39.9227 35.2592 41.3279 33.5336 42.1513 31.517C42.8478 29.798 43.1123 27.8715 43.5058 26.067L44.2608 22.6215C44.4265 21.8534 44.5103 21.0698 44.5108 20.284V18.5H44.2383C43.5906 19.2582 42.7861 19.8668 41.8805 20.2841C40.9748 20.7014 39.9894 20.9173 38.9923 20.917Z" fill="#F0D0B4"/>
<path d="M44.7155 43.8046C44.2759 43.7722 43.8369 43.733 43.3985 43.687C42.7329 43.6246 42.074 43.5038 41.4295 43.326L31.937 50.376L38.4915 53.3786L44.7155 43.8046Z" fill="#0B1C26"/>
<path d="M59.75 55.415V63.125H4.25V55.415C4.25132 52.9589 5.05937 50.5712 6.54991 48.619C8.04045 46.6669 10.131 45.2583 12.5 44.61C14.655 44.02 16.92 43.955 19.155 43.79L25.385 53.38L31.06 50.775L31.935 50.375L32.81 50.775L38.49 53.38L44.715 43.805C45.355 43.855 45.99 43.9 46.62 43.955C48.2629 44.0279 49.896 44.2471 51.5 44.61C53.869 45.2583 55.9595 46.6669 57.4501 48.619C58.9406 50.5712 59.7487 52.9589 59.75 55.415Z" fill="#04C168"/>
<path d="M31.9372 50.376L22.4917 43.3605C21.9894 43.5358 21.4618 43.6282 20.9297 43.634C20.3399 43.6991 19.7488 43.7517 19.1567 43.792L25.3827 53.3785L31.9372 50.376Z" fill="#0B1C26"/>
<path d="M32.8101 50.375V63.125H31.0601V50.375C31.0601 50.1429 31.1522 49.9204 31.3163 49.7563C31.4804 49.5922 31.703 49.5 31.9351 49.5C32.1671 49.5 32.3897 49.5922 32.5538 49.7563C32.7179 49.9204 32.8101 50.1429 32.8101 50.375ZM51.6251 55.81V63.125H49.8751V55.81C49.8751 55.5779 49.9672 55.3554 50.1313 55.1913C50.2954 55.0272 50.518 54.935 50.7501 54.935C50.9821 54.935 51.2047 55.0272 51.3688 55.1913C51.5329 55.3554 51.6251 55.5779 51.6251 55.81Z" fill="#424242"/>
<path d="M13.25 58.2335H18.4185C18.7024 58.2336 18.9746 58.3465 19.1753 58.5472C19.376 58.7479 19.4889 59.0201 19.489 59.304C19.4889 59.4446 19.5166 59.5838 19.5704 59.7138C19.6241 59.8437 19.703 59.9617 19.8024 60.0611C19.9018 60.1605 20.0199 60.2394 20.1498 60.2932C20.2797 60.3469 20.4189 60.3746 20.5595 60.3745H24.4765C24.7604 60.3746 25.0326 60.4875 25.2333 60.6882C25.434 60.8889 25.5469 61.1611 25.547 61.445V62.0545C25.5469 62.3384 25.434 62.6106 25.2333 62.8113C25.0326 63.0121 24.7604 63.1249 24.4765 63.125H13.25V58.2335ZM57.7925 49.1035H51.156C50.7582 49.1035 50.3766 49.2615 50.0953 49.5429C49.814 49.8242 49.656 50.2057 49.656 50.6035V50.666C49.656 51.0638 49.814 51.4454 50.0953 51.7267C50.3766 52.008 50.7582 52.166 51.156 52.166H52.375C52.7728 52.166 53.1544 52.324 53.4357 52.6054C53.717 52.8867 53.875 53.2682 53.875 53.666C53.875 54.0638 54.033 54.4454 54.3143 54.7267C54.5956 55.008 54.9772 55.166 55.375 55.166H59.7395C59.6939 52.9988 59.0173 50.892 57.7925 49.1035Z" fill="#05F283"/>
<path d="M38.3378 42.1761L39.5948 41.9196C39.5369 41.8318 39.4827 41.7417 39.4323 41.6496C39.2338 41.2877 39.1035 40.8925 39.0478 40.4836L38.4998 36.1956C36.6185 37.5876 34.3401 38.339 31.9998 38.339C29.6595 38.339 27.381 37.5876 25.4998 36.1956L24.9498 40.4836C24.8732 40.9978 24.6799 41.4876 24.3848 41.9156L25.6593 42.1761C29.8423 43.0304 34.1548 43.0304 38.3378 42.1761Z" fill="#DDB79B"/>
<path d="M39.5951 41.9195L38.3381 42.176C34.1559 43.03 29.8443 43.03 25.6621 42.176L24.3876 41.9155C23.9276 42.5887 23.2626 43.0954 22.4916 43.3605L31.9371 50.376L41.4296 43.326C40.6685 43.0937 40.017 42.5942 39.5951 41.9195ZM4.6001 52.6235H15.2136C15.4975 52.6235 15.7698 52.5107 15.9706 52.31C16.1713 52.1092 16.2841 51.8369 16.2841 51.553V50.9435C16.2842 50.8029 16.2565 50.6637 16.2027 50.5338C16.149 50.4039 16.0701 50.2858 15.9707 50.1864C15.8713 50.087 15.7532 50.0082 15.6233 49.9544C15.4934 49.9006 15.3542 49.873 15.2136 49.873H11.2966C11.0127 49.8729 10.7405 49.7601 10.5398 49.5593C10.3391 49.3586 10.2262 49.0864 10.2261 48.8025C10.2262 48.6619 10.1985 48.5227 10.1447 48.3928C10.091 48.2629 10.0121 48.1448 9.9127 48.0454C9.81328 47.946 9.69525 47.8672 9.56534 47.8134C9.43543 47.7596 9.2962 47.732 9.1556 47.732H7.3126C6.00882 49.1065 5.07548 50.7896 4.6001 52.6235ZM38.1581 63.125V60.6875C38.1582 60.2814 38.3196 59.892 38.6068 59.6049C38.894 59.3178 39.2835 59.1565 39.6896 59.1565H39.7501C40.1562 59.1564 40.5456 58.995 40.8327 58.7078C41.1198 58.4206 41.2811 58.0311 41.2811 57.625C41.2812 57.2189 41.4426 56.8295 41.7298 56.5424C42.017 56.2553 42.4065 56.094 42.8126 56.094H42.8751C43.2811 56.094 43.6706 56.2553 43.9577 56.5424C44.2448 56.8296 44.4061 57.219 44.4061 57.625V63.125H38.1581Z" fill="#05F283"/>
<path d="M14.125 55.8101V63.1251H12.375V55.8101C12.375 55.578 12.4672 55.3554 12.6313 55.1913C12.7954 55.0272 13.0179 54.9351 13.25 54.9351C13.4821 54.9351 13.7046 55.0272 13.8687 55.1913C14.0328 55.3554 14.125 55.578 14.125 55.8101Z" fill="#424242"/>
<path d="M19.7407 22.6215C19.5728 21.8533 19.4881 21.0693 19.4882 20.283V19.63C19.3348 19.6079 19.1802 19.5962 19.0252 19.595C18.5134 19.5937 18.0079 19.7079 17.5463 19.9289C17.0846 20.1499 16.6788 20.4722 16.3589 20.8717C16.039 21.2713 15.8132 21.7378 15.6985 22.2366C15.5837 22.7354 15.5829 23.2536 15.6961 23.7528C15.8092 24.2519 16.0335 24.7191 16.3521 25.1197C16.6707 25.5202 17.0755 25.8438 17.5364 26.0663C17.9974 26.2888 18.5025 26.4046 19.0143 26.405C19.5262 26.4053 20.0315 26.2903 20.4927 26.0685L19.7407 22.6215Z" fill="#DDB79B"/>
<path d="M33.1036 26.7H32.1251C31.8781 26.7001 31.6339 26.6468 31.4094 26.5438C31.1849 26.4407 30.9852 26.2905 30.8241 26.1032C30.663 25.9159 30.5443 25.696 30.4761 25.4586C30.4078 25.2211 30.3916 24.9718 30.4286 24.7275L30.8516 21.6165C30.8828 21.3865 31.0042 21.1783 31.1889 21.0378C31.3736 20.8972 31.6066 20.8358 31.8366 20.867C32.0666 20.8983 32.2748 21.0196 32.4154 21.2043C32.5559 21.389 32.6173 21.622 32.5861 21.852L32.1611 24.9765L33.1036 24.95C33.3357 24.95 33.5582 25.0422 33.7223 25.2063C33.8864 25.3704 33.9786 25.593 33.9786 25.825C33.9786 26.0571 33.8864 26.2797 33.7223 26.4437C33.5582 26.6078 33.3357 26.7 33.1036 26.7ZM31.9376 31.75C31.1874 31.7783 30.44 31.6433 29.7471 31.3544C29.0541 31.0656 28.4322 30.6297 27.9241 30.077C27.8511 29.9884 27.7963 29.8862 27.7627 29.7764C27.7292 29.6666 27.7176 29.5512 27.7287 29.4369C27.7397 29.3226 27.7732 29.2116 27.8271 29.1102C27.8811 29.0088 27.9545 28.919 28.0431 28.846C28.1318 28.773 28.2339 28.7182 28.3437 28.6846C28.4536 28.6511 28.569 28.6395 28.6833 28.6506C28.7976 28.6616 28.9086 28.6951 29.01 28.749C29.1113 28.803 29.2011 28.8764 29.2741 28.965C29.6201 29.3155 30.0362 29.5889 30.4952 29.7673C30.9542 29.9456 31.4458 30.025 31.9376 30C32.4292 30.025 32.9205 29.9459 33.3793 29.7678C33.8381 29.5897 34.2542 29.3166 34.6001 28.9665C34.7476 28.7875 34.9601 28.6744 35.191 28.6521C35.4218 28.6298 35.6521 28.7001 35.8311 28.8475C36.0101 28.995 36.1232 29.2075 36.1456 29.4384C36.1679 29.6692 36.0976 29.8995 35.9501 30.0785C35.4422 30.631 34.8203 31.0665 34.1275 31.3551C33.4347 31.6437 32.6876 31.7785 31.9376 31.75Z" fill="#424242"/>
<path d="M44.8501 19.595C44.7367 19.5974 44.6236 19.6059 44.5111 19.6205V20.2845C44.5106 21.0703 44.4268 21.8538 44.2611 22.622L43.5061 26.0675L43.4956 26.1175C43.9588 26.317 44.4606 26.4111 44.9647 26.3927C45.4687 26.3744 45.9624 26.2441 46.4098 26.0113C46.8573 25.7786 47.2474 25.4492 47.5518 25.0471C47.8562 24.6449 48.0674 24.1801 48.1699 23.6863C48.2725 23.1924 48.2639 22.682 48.1447 22.1919C48.0256 21.7018 47.7989 21.2443 47.4811 20.8526C47.1633 20.461 46.7623 20.1449 46.3073 19.9274C45.8522 19.7099 45.3545 19.5963 44.8501 19.595Z" fill="#DDB79B"/>
<path d="M38.9923 21.4175H25.0073C24.0989 21.4175 23.1994 21.2386 22.3602 20.8909C21.521 20.5433 20.7584 20.0337 20.1161 19.3914C19.4738 18.749 18.9643 17.9864 18.6167 17.1472C18.2691 16.3079 18.0903 15.4084 18.0903 14.5H45.9093C45.9094 15.4084 45.7305 16.3079 45.3829 17.1472C45.0354 17.9864 44.5259 18.749 43.8836 19.3914C43.2413 20.0337 42.4787 20.5433 41.6395 20.8909C40.8002 21.2386 39.9007 21.4175 38.9923 21.4175Z" fill="#0B1C26"/>
<path d="M48.1708 11.175L45.9093 14.5H18.0903L15.8283 11.175C15.4866 10.6724 15.2937 10.0834 15.2721 9.47593C15.2504 8.86848 15.4008 8.26726 15.7058 7.74152L17.2998 4.99502C18.0272 3.74155 19.0711 2.70113 20.3269 1.9779C21.5828 1.25468 23.0066 0.874014 24.4558 0.874023H39.5438C40.9931 0.874014 42.4169 1.25468 43.6727 1.9779C44.9286 2.70113 45.9725 3.74155 46.6998 4.99502L48.2938 7.74152C48.5989 8.26727 48.7493 8.86853 48.7275 9.47601C48.7058 10.0835 48.5128 10.6725 48.1708 11.175Z" fill="#5E8569"/>
<path d="M48.1708 11.175L45.9093 14.5H18.0903L15.8283 11.175C15.4866 10.6724 15.2937 10.0834 15.2721 9.47593C15.2504 8.86848 15.4008 8.26726 15.7058 7.74152L17.2998 4.99502C18.0272 3.74155 19.0711 2.70113 20.3269 1.9779C21.5828 1.25468 23.0066 0.874014 24.4558 0.874023H39.5438C40.9931 0.874014 42.4169 1.25468 43.6727 1.9779C44.9286 2.70113 45.9725 3.74155 46.6998 4.99502L48.2938 7.74152C48.5989 8.26727 48.7493 8.86853 48.7275 9.47601C48.7058 10.0835 48.5128 10.6725 48.1708 11.175Z" fill="#04C168"/>
<path d="M34.7346 8.12251L32.0001 10.1245L29.2656 8.12251V4.18701H34.7346V8.12251Z" fill="#FBB540"/>
<g style="mix-blend-mode:darken">
<path d="M60.614 55.15C60.5502 52.5503 59.6523 50.0399 58.0528 47.9895C56.4533 45.939 54.237 44.4571 51.731 43.7625C50.3367 43.4251 48.9138 43.2194 47.481 43.148C47.2195 43.127 46.957 43.106 46.6965 43.083C46.25 43.044 45.7965 43.0095 45.3435 42.974L44.786 42.931H44.7815C44.3625 42.9002 43.944 42.8633 43.526 42.8205L43.1435 42.7705C42.6568 42.7224 42.1755 42.6301 41.7055 42.495C41.136 42.3258 40.6487 41.9529 40.3365 41.4475C40.293 41.3785 40.249 41.3095 40.2095 41.2385C40.062 40.9708 39.9649 40.6783 39.923 40.3755L39.44 36.6005C41.0004 35.3421 42.2151 33.7075 42.97 31.8505C43.4802 30.4657 43.858 29.0356 44.0985 27.5795C44.122 27.459 44.1485 27.341 44.1715 27.2205C44.3979 27.2605 44.6271 27.2815 44.857 27.2835C45.9398 27.2898 46.9846 26.8851 47.7808 26.1511C48.5769 25.4172 49.0649 24.4086 49.1465 23.3289C49.2281 22.2491 48.8971 21.1786 48.2204 20.3334C47.5436 19.4881 46.5714 18.931 45.5 18.7745C46.2805 17.5888 46.7197 16.2112 46.7695 14.7925L48.895 11.6665C49.3272 11.0262 49.5709 10.2775 49.5983 9.50547C49.6257 8.73347 49.4357 7.9693 49.05 7.3L47.4565 4.556C46.6501 3.172 45.4953 2.02323 44.1072 1.22393C42.719 0.42464 41.1458 0.00267436 39.544 1.97508e-06H24.456C23.2525 -0.000790886 22.0609 0.237133 20.95 0.700002C20.8439 0.743995 20.7475 0.808456 20.6663 0.889706C20.5851 0.970956 20.5207 1.0674 20.4768 1.17354C20.3881 1.38789 20.3882 1.62871 20.477 1.843C20.5658 2.0573 20.7362 2.22752 20.9505 2.31623C21.1649 2.40493 21.4057 2.40485 21.62 2.316C22.5187 1.94188 23.4826 1.74951 24.456 1.75H39.544C40.8397 1.7521 42.1122 2.09342 43.2351 2.74C44.3579 3.38659 45.2918 4.31591 45.944 5.4355L47.538 8.1815C47.7585 8.56486 47.8669 9.00237 47.8511 9.44431C47.8353 9.88626 47.6958 10.3149 47.4485 10.6815L45.4485 13.625H18.5535L16.5535 10.682C16.3064 10.3153 16.167 9.88665 16.1513 9.44474C16.1356 9.00282 16.2441 8.56535 16.4645 8.182L18.0585 5.4355C18.1751 5.2348 18.2071 4.99601 18.1476 4.77167C18.0881 4.54733 17.942 4.35581 17.7412 4.23925C17.5405 4.12269 17.3018 4.09063 17.0774 4.15013C16.8531 4.20962 16.6616 4.3558 16.545 4.5565L14.95 7.3025C14.5649 7.97168 14.3753 8.73551 14.4029 9.50709C14.4305 10.2787 14.6741 11.027 15.106 11.667L17.2315 14.7925C17.2814 16.2041 17.7166 17.5751 18.49 18.757C17.4102 18.8929 16.4228 19.4353 15.7289 20.2737C15.0349 21.112 14.6865 22.1833 14.7547 23.2695C14.8229 24.3557 15.3025 25.3751 16.0959 26.1201C16.8892 26.8651 17.9367 27.2797 19.025 27.2795C19.2957 27.2778 19.5656 27.25 19.831 27.1965C19.8565 27.3235 19.8835 27.4465 19.9085 27.5755C20.149 29.0328 20.5271 30.464 21.0375 31.85C21.7919 33.707 23.0063 35.3416 24.5665 36.6L24.0855 40.3665C24.0271 40.747 23.8832 41.1092 23.6645 41.426C23.3082 41.9436 22.7947 42.3328 22.2 42.536C21.1783 42.7549 20.1393 42.8833 19.095 42.9195C18.753 42.9442 18.411 42.9672 18.069 42.9885C16.1145 43.0507 14.1713 43.3103 12.269 43.7635C10.1518 44.3456 8.2342 45.496 6.724 47.09C5.29612 48.5921 4.27284 50.4321 3.75 52.4375C3.50096 53.4108 3.37498 54.4114 3.375 55.416V63.125C3.37493 63.2399 3.39752 63.3537 3.44147 63.4599C3.48542 63.5661 3.54987 63.6626 3.63114 63.7439C3.7124 63.8251 3.80888 63.8896 3.91507 63.9335C4.02126 63.9775 4.13507 64.0001 4.25 64H59.75C59.8649 64.0001 59.9787 63.9775 60.0849 63.9335C60.1911 63.8896 60.2876 63.8251 60.3689 63.7439C60.4501 63.6626 60.5146 63.5661 60.5585 63.4599C60.6025 63.3537 60.6251 63.2399 60.625 63.125V55.416C60.625 55.327 60.616 55.24 60.614 55.15ZM57.6165 50.4895C58.2517 51.6687 58.6555 52.9586 58.806 54.2895H55.375C55.2092 54.2895 55.0503 54.2237 54.9331 54.1064C54.8158 53.9892 54.75 53.8303 54.75 53.6645C54.7492 53.0349 54.4987 52.4312 54.0535 51.986C53.6083 51.5408 53.0046 51.2903 52.375 51.2895H51.156C50.9903 51.2894 50.8314 51.2235 50.7142 51.1063C50.597 50.9891 50.5311 50.8302 50.531 50.6645V50.602C50.5313 50.4363 50.5972 50.2775 50.7144 50.1604C50.8315 50.0432 50.9903 49.9773 51.156 49.977H57.315C57.4195 50.147 57.522 50.3165 57.6165 50.491V50.4895ZM43.1925 44.5395L38.1695 52.2685L33.6465 50.1965L41.607 44.284C42.0382 44.3812 42.4743 44.455 42.9135 44.505L43.1925 44.5395ZM47.38 23C47.3792 23.6708 47.1124 24.3138 46.6381 24.7881C46.1638 25.2624 45.5208 25.5292 44.85 25.53C44.7413 25.53 44.6327 25.5225 44.525 25.5075C44.8705 23.7525 45.312 22.525 45.384 20.527C45.9489 20.6496 46.4549 20.9618 46.818 21.4116C47.181 21.8615 47.3794 22.4219 47.38 23ZM44.971 15.376C44.8007 16.5298 44.2984 17.6091 43.5255 18.4825C42.9578 19.126 42.2605 19.6422 41.4793 19.9972C40.6981 20.3523 39.8506 20.5381 38.9925 20.5425H25.0075C24.1493 20.5389 23.3015 20.3535 22.5202 19.9984C21.7389 19.6433 21.0416 19.1267 20.4745 18.4825C19.7016 17.6091 19.1993 16.5298 19.029 15.376H44.971ZM19.025 25.5295C18.3896 25.5295 17.7775 25.2905 17.3103 24.8599C16.8431 24.4293 16.555 23.8387 16.5032 23.2054C16.4515 22.5722 16.64 21.9426 17.0311 21.4419C17.4223 20.9412 17.9875 20.6061 18.6145 20.503C18.5615 21.544 19.1835 24.2105 19.4705 25.489C19.3235 25.516 19.1744 25.5296 19.025 25.5295ZM22.659 31.1905C22.1931 29.9074 21.8472 28.5839 21.6255 27.237C21.5355 26.7805 21.446 26.327 21.3485 25.8805L20.9455 24.0395C20.638 22.405 20.572 22.9055 20.3755 20.7615C21.7154 21.7552 23.3393 22.2919 25.0075 22.2925H30.76L30.4285 24.7285C30.3916 24.9727 30.4079 25.2219 30.4763 25.4592C30.5446 25.6965 30.6634 25.9163 30.8245 26.1035C30.9855 26.2906 31.1851 26.4408 31.4096 26.5438C31.634 26.6467 31.8781 26.7 32.125 26.7H33.1035C33.3356 26.7 33.5581 26.6078 33.7222 26.4437C33.8863 26.2796 33.9785 26.0571 33.9785 25.825C33.9785 25.5929 33.8863 25.3704 33.7222 25.2063C33.5581 25.0422 33.3356 24.95 33.1035 24.95L32.161 24.9765L32.526 22.2915H38.9925C40.6576 22.2747 42.2761 21.7399 43.6235 20.7615C43.608 21.325 43.535 21.8854 43.4055 22.434L42.65 25.881L42.641 25.922V25.9305C42.548 26.3605 42.461 26.7965 42.3745 27.2355C42.1529 28.5813 41.8071 29.9036 41.3415 31.1855C40.6546 32.8787 39.5197 34.3529 38.0585 35.45C36.2993 36.7384 34.1804 37.4426 32 37.4635C29.8204 37.4323 27.7037 36.728 25.94 35.447C24.4804 34.3521 23.3463 32.8807 22.659 31.1905ZM28.893 38.7965C29.9061 39.0703 30.9506 39.2108 32 39.2145C34.0315 39.1935 36.0267 38.6734 37.81 37.7L38.1795 40.5935C38.2104 40.8279 38.2619 41.0592 38.3335 41.2845L38.1615 41.3195C37.9385 41.3648 37.7152 41.4078 37.4915 41.4485C37.2631 41.4895 37.0603 41.6196 36.9278 41.8102C36.7953 42.0007 36.744 42.2361 36.785 42.4645C36.826 42.6929 36.9561 42.8957 37.1467 43.0282C37.3372 43.1607 37.5726 43.212 37.801 43.171C38.0395 43.128 38.2775 43.082 38.5125 43.0335L39.225 42.888C39.3979 43.0921 39.5905 43.2787 39.8 43.445L36.4275 45.95L31.937 49.285L29.2635 47.3L24.1075 43.47C24.3376 43.2943 24.5502 43.0969 24.7425 42.8805L25.487 43.0305C26.3605 43.2095 27.2565 43.354 28.1505 43.4605C28.379 43.4841 28.6076 43.4169 28.787 43.2735C28.9664 43.13 29.0821 42.9217 29.1093 42.6937C29.1365 42.4656 29.0729 42.2359 28.9322 42.0543C28.7916 41.8727 28.5851 41.7537 28.3575 41.723C27.5122 41.6228 26.6714 41.487 25.8375 41.316L25.6555 41.279C25.7303 41.0552 25.7856 40.8254 25.8205 40.592L26.19 37.697C27.0419 38.1743 27.9499 38.5436 28.893 38.7965ZM20.9885 44.508C21.439 44.4982 21.8868 44.4371 22.3235 44.326L24.506 45.947L30.2275 50.197L25.705 52.2685L20.686 44.5405L20.9885 44.508ZM5.9115 51.488C6.34997 50.4383 6.95379 49.4657 7.7 48.607H9.155C9.20676 48.607 9.25641 48.6275 9.29306 48.6641C9.32971 48.7006 9.35037 48.7502 9.3505 48.802C9.35156 49.3177 9.55685 49.812 9.92146 50.1767C10.2861 50.5414 10.7803 50.7468 11.296 50.748H15.2135C15.2392 50.748 15.2645 50.7531 15.2882 50.7629C15.3119 50.7727 15.3334 50.7871 15.3516 50.8053C15.3697 50.8235 15.384 50.845 15.3938 50.8687C15.4036 50.8924 15.4086 50.9179 15.4085 50.9435V51.5525C15.4086 51.5782 15.4036 51.6036 15.3938 51.6274C15.384 51.6511 15.3697 51.6727 15.3516 51.6909C15.3335 51.7091 15.312 51.7235 15.2883 51.7334C15.2646 51.7433 15.2392 51.7484 15.2135 51.7485H5.81C5.8435 51.6615 5.876 51.574 5.9115 51.488ZM5.125 55.416C5.12702 54.7729 5.18963 54.1314 5.312 53.5H15.212C15.7276 53.4987 16.2217 53.2932 16.5862 52.9285C16.9507 52.5638 17.1559 52.0696 17.157 51.554V50.945C17.1557 50.4299 16.9506 49.9363 16.5866 49.5718C16.2225 49.2074 15.7291 49.0019 15.214 49H11.2965C11.2704 49.0001 11.2445 48.9949 11.2204 48.9849C11.1963 48.9748 11.1745 48.96 11.1561 48.9414C11.1378 48.9227 11.1234 48.9006 11.1138 48.8764C11.1042 48.8521 11.0995 48.8261 11.1 48.8C11.099 48.3622 10.9504 47.9376 10.6782 47.5947C10.406 47.2518 10.0262 47.0107 9.6 46.9105C10.5538 46.2506 11.6124 45.7568 12.731 45.45C14.5188 45.0278 16.3448 44.7876 18.181 44.733L18.7025 44.6975L24.65 53.855C24.7643 54.0316 24.9385 54.161 25.1405 54.2196C25.3426 54.2782 25.5589 54.262 25.75 54.174L31.065 51.739V62.25H26.4C26.41 62.1852 26.4167 62.12 26.42 62.0545V61.4455C26.4188 60.9302 26.2137 60.4364 25.8496 60.0718C25.4854 59.7073 24.9918 59.5017 24.4765 59.5H20.5595C20.5076 59.5 20.4578 59.4794 20.4211 59.4428C20.3843 59.4061 20.3636 59.3564 20.3635 59.3045C20.3623 58.789 20.157 58.2949 19.7925 57.9303C19.4281 57.5657 18.934 57.3603 18.4185 57.359H14.125V55.813C14.125 55.5809 14.0328 55.3584 13.8687 55.1943C13.7046 55.0302 13.4821 54.938 13.25 54.938C13.0179 54.938 12.7954 55.0302 12.6313 55.1943C12.4672 55.3584 12.375 55.5809 12.375 55.813V62.25H5.125V55.416ZM14.125 62.25V59.1085H18.4185C18.4703 59.1086 18.5199 59.1293 18.5564 59.1659C18.593 59.2026 18.6135 59.2522 18.6135 59.304C18.6147 59.8197 18.8201 60.3139 19.1848 60.6785C19.5495 61.0432 20.0438 61.2484 20.5595 61.2495H24.4765C24.5284 61.2496 24.5781 61.2703 24.6148 61.3071C24.6514 61.3438 24.672 61.3936 24.672 61.4455V62.0545C24.672 62.1064 24.6514 62.1561 24.6147 62.1927C24.5781 62.2294 24.5283 62.25 24.4765 62.25H14.125ZM39.033 62.25V60.6875C39.0333 60.5135 39.1025 60.3467 39.2256 60.2238C39.3487 60.1008 39.5155 60.0316 39.6895 60.0315H39.75C40.3879 60.0306 40.9994 59.7767 41.4505 59.3256C41.9015 58.8745 42.1552 58.2629 42.156 57.625C42.1563 57.451 42.2255 57.2842 42.3486 57.1613C42.4717 57.0383 42.6385 56.9691 42.8125 56.969H42.875C43.0489 56.9691 43.2157 57.0383 43.3387 57.1613C43.4617 57.2843 43.5309 57.4511 43.531 57.625V62.25H39.033ZM51.625 62.25V55.8125C51.625 55.5804 51.5328 55.3579 51.3687 55.1938C51.2046 55.0297 50.9821 54.9375 50.75 54.9375C50.5179 54.9375 50.2954 55.0297 50.1313 55.1938C49.9672 55.3579 49.875 55.5804 49.875 55.8125V62.25H45.281V57.625C45.2802 56.9871 45.0265 56.3756 44.5754 55.9246C44.1244 55.4735 43.5129 55.2198 42.875 55.219H42.8125C42.1746 55.2198 41.563 55.4735 41.1119 55.9246C40.6608 56.3756 40.4069 56.9871 40.406 57.625C40.4059 57.799 40.3367 57.9658 40.2137 58.0889C40.0908 58.212 39.924 58.2812 39.75 58.2815H39.6895C39.0516 58.2823 38.44 58.536 37.9889 58.9871C37.5378 59.4381 37.2839 60.0496 37.283 60.6875V62.25H32.812V51.739L38.1275 54.174C38.3185 54.2621 38.5349 54.2784 38.7369 54.2199C38.9389 54.1614 39.1131 54.032 39.2275 53.8555L45.1655 44.717L45.207 44.72C45.657 44.755 46.1015 44.789 46.542 44.8275C46.807 44.851 47.0725 44.872 47.339 44.8935C48.6635 44.957 49.9792 45.1439 51.269 45.452C53.0486 45.9412 54.6637 46.9002 55.945 48.2285H51.156C50.5264 48.2293 49.9227 48.4798 49.4775 48.925C49.0323 49.3702 48.7818 49.9739 48.781 50.6035V50.666C48.7818 51.2957 49.0323 51.8993 49.4775 52.3445C49.9227 52.7897 50.5264 53.0402 51.156 53.041H52.375C52.5407 53.0413 52.6995 53.1072 52.8167 53.2244C52.9338 53.3415 52.9997 53.5003 53 53.666C53.0008 54.2957 53.2513 54.8993 53.6965 55.3445C54.1417 55.7897 54.7454 56.0402 55.375 56.041H58.875V62.25H51.625Z" fill="#011526"/>
</g>
<g style="mix-blend-mode:darken">
<path d="M32.5621 43.6865H32.5781C32.9471 43.6795 33.3163 43.6667 33.6856 43.648C33.8004 43.6421 33.9129 43.6137 34.0167 43.5643C34.1205 43.5149 34.2135 43.4456 34.2905 43.3602C34.3675 43.2749 34.4269 43.1752 34.4653 43.0669C34.5038 42.9586 34.5205 42.8438 34.5146 42.729C34.4972 42.4992 34.3921 42.285 34.221 42.1306C34.0499 41.9763 33.8259 41.8937 33.5956 41.9C33.2463 41.918 32.8963 41.9302 32.5456 41.9365C32.4307 41.9375 32.3171 41.9611 32.2113 42.006C32.1055 42.0509 32.0096 42.1161 31.9291 42.1981C31.7664 42.3636 31.6761 42.5869 31.6781 42.819C31.6801 43.0511 31.7742 43.2728 31.9397 43.4355C32.1052 43.5982 32.3285 43.6885 32.5606 43.6865H32.5621ZM31.9376 31.75C32.6875 31.7785 33.4347 31.6437 34.1275 31.3551C34.8203 31.0665 35.4421 30.631 35.9501 30.0785C36.0231 29.9899 36.078 29.8877 36.1115 29.7779C36.145 29.668 36.1566 29.5527 36.1456 29.4384C36.1345 29.3241 36.101 29.213 36.0471 29.1117C35.9931 29.0103 35.9197 28.9205 35.8311 28.8475C35.7425 28.7745 35.6403 28.7197 35.5305 28.6861C35.4206 28.6526 35.3053 28.641 35.191 28.6521C35.0766 28.6631 34.9656 28.6966 34.8643 28.7505C34.7629 28.8045 34.6731 28.8779 34.6001 28.9665C34.2542 29.3166 33.8381 29.5897 33.3793 29.7678C32.9205 29.9459 32.4292 30.025 31.9376 30C31.4459 30.0249 30.9544 29.9455 30.4955 29.7671C30.0365 29.5888 29.6205 29.3154 29.2746 28.965C29.2016 28.8764 29.1118 28.803 29.0105 28.749C28.9091 28.6951 28.7981 28.6616 28.6837 28.6506C28.5694 28.6395 28.4541 28.6511 28.3442 28.6846C28.2344 28.7182 28.1322 28.773 28.0436 28.846C27.955 28.919 27.8816 29.0088 27.8276 29.1102C27.7737 29.2115 27.7402 29.3226 27.7292 29.4369C27.7181 29.5512 27.7297 29.6665 27.7632 29.7764C27.7967 29.8862 27.8516 29.9884 27.9246 30.077C28.4326 30.6297 29.0545 31.0655 29.7473 31.3543C30.4402 31.6432 31.1875 31.7782 31.9376 31.75ZM31.4831 10.8305C31.6331 10.9403 31.8142 10.9995 32.0001 10.9995C32.186 10.9995 32.3671 10.9403 32.5171 10.8305L35.2516 8.83051C35.3625 8.74922 35.4528 8.64294 35.515 8.52028C35.5771 8.39762 35.6096 8.26204 35.6096 8.12451V4.18701C35.6096 3.95495 35.5174 3.73239 35.3533 3.56829C35.1892 3.4042 34.9667 3.31201 34.7346 3.31201H29.2656C29.1507 3.31195 29.0369 3.33453 28.9307 3.37848C28.8245 3.42243 28.728 3.48688 28.6467 3.56815C28.5655 3.64941 28.501 3.7459 28.4571 3.85209C28.4131 3.95828 28.3905 4.07209 28.3906 4.18701V8.12251C28.3906 8.26004 28.4231 8.39562 28.4853 8.51828C28.5475 8.64094 28.6377 8.74722 28.7486 8.82851L31.4831 10.8305ZM30.1406 5.06201H33.8596V7.67851L32.0001 9.04001L30.1406 7.67851V5.06201Z" fill="#011526"/>
</g>
</g>
<defs>
<clipPath id="clip0_28113_298">
<rect width="64" height="64" fill="white"/>
</clipPath>
</defs>
</svg>
