<svg width="59" height="64" viewBox="0 0 59 64" fill="none" xmlns="http://www.w3.org/2000/svg">
<g clip-path="url(#clip0_28116_235)">
<path d="M41.1621 7.15053V14.5084C41.1621 14.6026 41.1834 14.6956 41.2245 14.7804C41.2656 14.8652 41.3253 14.9396 41.3993 14.998L45.8155 18.4864C45.9256 18.5734 46.0619 18.6207 46.2022 18.6207C46.3425 18.6207 46.4788 18.5734 46.5889 18.4864L51.0051 14.998C51.0791 14.9395 51.1388 14.8652 51.1799 14.7804C51.2209 14.6956 51.2423 14.6026 51.2423 14.5084V7.15053C51.2423 7.05632 51.221 6.96333 51.1799 6.87854C51.1388 6.79376 51.0791 6.71938 51.0051 6.66098L46.5889 3.17255C46.4788 3.08558 46.3425 3.03827 46.2022 3.03827C46.0619 3.03827 45.9256 3.08558 45.8155 3.17255L41.3993 6.66098C41.3253 6.71937 41.2656 6.79375 41.2245 6.87854C41.1834 6.96332 41.1621 7.05631 41.1621 7.15053Z" fill="#022340"/>
<path d="M41.1621 7.15053V14.5084C41.1621 14.6026 41.1834 14.6956 41.2245 14.7804C41.2656 14.8652 41.3253 14.9396 41.3993 14.998L45.8155 18.4864C45.9256 18.5734 46.0619 18.6207 46.2022 18.6207C46.3425 18.6207 46.4788 18.5734 46.5889 18.4864L51.0051 14.998C51.0791 14.9395 51.1388 14.8652 51.1799 14.7804C51.2209 14.6956 51.2423 14.6026 51.2423 14.5084V7.15053C51.2423 7.05632 51.221 6.96333 51.1799 6.87854C51.1388 6.79376 51.0791 6.71938 51.0051 6.66098L46.5889 3.17255C46.4788 3.08558 46.3425 3.03827 46.2022 3.03827C46.0619 3.03827 45.9256 3.08558 45.8155 3.17255L41.3993 6.66098C41.3253 6.71937 41.2656 6.79375 41.2245 6.87854C41.1834 6.96332 41.1621 7.05632 41.1621 7.15053Z" stroke="black" stroke-width="1.6" stroke-miterlimit="10" stroke-linecap="round" stroke-linejoin="round"/>
<path d="M44.3037 13.2884V8.37041L46.2018 6.87122L48.0998 8.37041V13.2884L46.2018 14.7878L44.3037 13.2884Z" fill="#0B1C26"/>
<path d="M44.3041 13.2884V8.37037M44.3041 13.2884L46.2021 14.7877M44.3041 13.2884L41.1621 14.8105M44.3041 8.37037L46.2021 6.87118M44.3041 8.37037L41.4306 6.97834M46.2021 6.87118L48.1002 8.37037M46.2021 6.87118V3.86517M48.1002 8.37037V13.2884M48.1002 8.37037L50.7828 7.07079M48.1002 13.2884L46.2021 14.7877M48.1002 13.2884L51.2422 14.8105M46.2021 14.7877V18.7916" stroke="black" stroke-width="1.6" stroke-miterlimit="10" stroke-linecap="round" stroke-linejoin="round"/>
<path d="M32.6511 54.4423C31.1598 54.4423 29.718 53.9079 28.587 52.936H20.0822C18.9513 53.9079 17.5094 54.4423 16.0182 54.4423H3.49951V61.8168C3.49951 62.5058 4.05805 63.0643 4.74708 63.0643H43.9224C44.6115 63.0643 45.17 62.5058 45.17 61.8168V54.4423H32.6511Z" fill="#022340"/>
<path d="M8.48977 61.8167V54.4423H3.49951V61.8167C3.49951 62.5058 4.05805 63.0643 4.74708 63.0643H9.73733C9.0483 63.0643 8.48977 62.5058 8.48977 61.8167Z" fill="#0B1C26"/>
<path d="M3.49951 54.4423V61.8167C3.49951 62.5058 4.05805 63.0643 4.74708 63.0643H43.9224C44.6115 63.0643 45.17 62.5058 45.17 61.8167V54.4423" stroke="black" stroke-width="1.6" stroke-miterlimit="10" stroke-linecap="round" stroke-linejoin="round"/>
<path d="M27.9996 52.3593L24.6505 57.609C24.5034 57.8397 24.1666 57.8397 24.0195 57.609L20.6704 52.3593C19.9713 53.1416 19.0863 53.7351 18.0972 54.085V63.0643H30.5728V54.085C29.5837 53.7351 28.6987 53.1416 27.9996 52.3593Z" fill="#C4E2FF"/>
<path d="M20.6704 52.3593C19.9713 53.1416 19.0863 53.7351 18.0972 54.085V63.0643H21.7151V53.9969L20.6704 52.3593Z" fill="#B3DAFE"/>
<path d="M27.9996 52.3593L24.6505 57.609C24.5034 57.8397 24.1666 57.8397 24.0195 57.609L20.6704 52.3593C19.9713 53.1416 19.0863 53.7351 18.0972 54.085V63.0643H30.5728V54.085C29.5837 53.7351 28.6987 53.1416 27.9996 52.3593Z" stroke="black" stroke-width="1.6" stroke-miterlimit="10" stroke-linecap="round" stroke-linejoin="round"/>
<path d="M17.037 46.6636C16.3976 45.6615 16.058 44.4975 16.058 43.3088V41.6979L13.9119 39.552L4.8031 43.8092C3.71864 44.3161 2.80121 45.1217 2.15847 46.1316C1.51573 47.1415 1.17433 48.3137 1.17432 49.5108V53.8185C1.17432 53.984 1.24004 54.1426 1.35702 54.2596C1.474 54.3766 1.63266 54.4423 1.7981 54.4423H16.0187C16.897 54.4422 17.7654 54.2566 18.5671 53.8976C19.3687 53.5386 20.0855 53.0144 20.6705 52.3592L17.037 46.6636Z" fill="#05F283"/>
<path d="M6.16457 50.509C6.16456 49.3119 6.50596 48.1396 7.14871 47.1298C7.79145 46.1199 8.70888 45.3142 9.79336 44.8074L16.058 41.8793V41.6979L13.9119 39.552L4.8031 43.8092C3.71864 44.3161 2.80121 45.1217 2.15847 46.1316C1.51573 47.1415 1.17433 48.3137 1.17432 49.5108V53.8185C1.17432 53.984 1.24004 54.1426 1.35702 54.2596C1.474 54.3766 1.63266 54.4423 1.7981 54.4423H6.16457V50.509Z" fill="#04C168"/>
<path d="M13.9121 39.5519L4.8031 43.8092C3.71864 44.3161 2.80121 45.1217 2.15847 46.1316C1.51573 47.1415 1.17433 48.3137 1.17432 49.5108V53.8185C1.17432 53.984 1.24004 54.1426 1.35702 54.2596C1.474 54.3766 1.63266 54.4423 1.7981 54.4423H8.89923M13.2657 54.4423H16.0187C16.897 54.4422 17.7654 54.2566 18.5671 53.8976C19.3687 53.5386 20.0855 53.0144 20.6705 52.3592" stroke="black" stroke-width="1.6" stroke-miterlimit="10" stroke-linecap="round" stroke-linejoin="round"/>
<path d="M43.8669 43.8092L34.7581 39.5518L32.612 41.6978V43.3087C32.612 44.4974 32.2723 45.6613 31.633 46.6635L27.9995 52.3592C28.5845 53.0144 29.3013 53.5387 30.1029 53.8976C30.9045 54.2566 31.773 54.4422 32.6513 54.4423H46.8719C47.0373 54.4423 47.196 54.3766 47.313 54.2596C47.43 54.1426 47.4957 53.984 47.4957 53.8185V49.5108C47.4957 48.3137 47.1543 47.1415 46.5115 46.1316C45.8688 45.1217 44.9514 44.3161 43.8669 43.8092Z" fill="#05F283"/>
<path d="M34.6272 48.6597C35.2665 47.6576 35.6062 46.4936 35.6062 45.3049V43.694L38.1588 41.1414L34.7581 39.5519L32.612 41.6979V43.3088C32.612 44.4975 32.2723 45.6614 31.633 46.6636L27.9995 52.3594C28.8163 53.2729 29.8839 53.926 31.0691 54.2372L34.6272 48.6597Z" fill="#04C168"/>
<path d="M43.8669 43.8092L34.7581 39.5518L32.612 41.6978V43.3087C32.612 44.4974 32.2723 45.6613 31.633 46.6635L27.9995 52.3592C28.5845 53.0144 29.3013 53.5387 30.1029 53.8976C30.9045 54.2566 31.773 54.4422 32.6513 54.4423H46.8719C47.0373 54.4423 47.196 54.3766 47.313 54.2596C47.43 54.1426 47.4957 53.984 47.4957 53.8185V49.5108C47.4957 48.3137 47.1543 47.1415 46.5115 46.1316C45.8688 45.1217 44.9514 44.3161 43.8669 43.8092Z" stroke="black" stroke-width="1.6" stroke-miterlimit="10" stroke-linecap="round" stroke-linejoin="round"/>
<path d="M43.178 29.6262H5.49223C4.93644 29.6262 4.65823 30.2981 5.05109 30.6911L23.894 49.534C24.011 49.651 24.1697 49.7167 24.3351 49.7167C24.5006 49.7167 24.6592 49.651 24.7762 49.534L43.6191 30.6911C44.012 30.298 43.7337 29.6262 43.178 29.6262Z" fill="#022340"/>
<path d="M10.041 30.691C9.648 30.298 9.92633 29.6262 10.482 29.6262H5.49174C4.93595 29.6262 4.65775 30.2981 5.0506 30.691L23.8936 49.5339C24.0105 49.6509 24.1692 49.7166 24.3346 49.7166C24.5001 49.7166 24.6587 49.6509 24.7757 49.5339L26.8297 47.4798L10.041 30.691Z" fill="#0B1C26"/>
<path d="M43.178 29.6262H5.49223C4.93644 29.6262 4.65823 30.2981 5.05109 30.6911L23.894 49.534C24.011 49.651 24.1697 49.7167 24.3351 49.7167C24.5006 49.7167 24.6592 49.651 24.7762 49.534L43.6191 30.6911C44.012 30.298 43.7337 29.6262 43.178 29.6262Z" stroke="black" stroke-width="1.6" stroke-miterlimit="10" stroke-linecap="round" stroke-linejoin="round"/>
<path d="M30.6164 36.4513C30.2041 36.7397 29.6368 36.4409 29.6368 35.9377V33.6349C29.6368 31.9124 28.2404 30.516 26.5179 30.516H22.1515C20.429 30.516 19.0326 31.9124 19.0326 33.6349V35.9377C19.0326 36.4409 18.4654 36.7397 18.053 36.4513C16.8467 35.6075 16.0576 34.2087 16.0576 32.6247V43.3086C16.0577 44.4973 16.3973 45.6613 17.0366 46.6635L24.0192 57.609C24.1663 57.8396 24.5031 57.8396 24.6502 57.609L31.6328 46.6635C32.2722 45.6613 32.6118 44.4973 32.6118 43.3086V32.6247C32.6118 34.2087 31.8227 35.6075 30.6164 36.4513Z" fill="white"/>
<path d="M21.0289 46.6636C20.3896 45.6615 20.0499 44.4975 20.0499 43.3088V31.3307C19.4249 31.9011 19.0327 32.7222 19.0327 33.6349V35.9377C19.0327 36.441 18.4655 36.7397 18.0531 36.4513C16.8468 35.6076 16.0576 34.2087 16.0576 32.6248V43.3087C16.0577 44.4974 16.3973 45.6613 17.0366 46.6635L24.0192 57.609C24.1663 57.8397 24.5031 57.8397 24.6502 57.609L26.3308 54.9746L21.0289 46.6636Z" fill="#F8F6F6"/>
<path d="M30.6164 36.4513C30.2041 36.7397 29.6368 36.4409 29.6368 35.9377V33.6349C29.6368 31.9124 28.2404 30.516 26.5179 30.516H22.1515C20.429 30.516 19.0326 31.9124 19.0326 33.6349V35.9377C19.0326 36.4409 18.4654 36.7397 18.053 36.4513C16.8467 35.6075 16.0576 34.2087 16.0576 32.6247V43.3086C16.0577 44.4973 16.3973 45.6613 17.0366 46.6635L24.0192 57.609C24.1663 57.8396 24.5031 57.8396 24.6502 57.609L31.6328 46.6635C32.2722 45.6613 32.6118 44.4973 32.6118 43.3086V32.6247C32.6118 34.2087 31.8227 35.6075 30.6164 36.4513Z" stroke="black" stroke-width="1.6" stroke-miterlimit="10" stroke-linecap="round" stroke-linejoin="round"/>
<path d="M33.5825 22.9125H32.6118V29.99H33.5825C35.3652 29.99 36.8104 28.5448 36.8104 26.7622V26.1404C36.8104 24.3577 35.3652 22.9125 33.5825 22.9125Z" fill="#FFB09E"/>
<path d="M33.5825 22.9125H32.6118V29.99H33.5825C35.3652 29.99 36.8104 28.5448 36.8104 26.7622V26.1404C36.8104 24.3577 35.3652 22.9125 33.5825 22.9125Z" stroke="black" stroke-width="1.6" stroke-miterlimit="10" stroke-linecap="round" stroke-linejoin="round"/>
<path d="M16.0579 22.9125H15.0872C13.3046 22.9125 11.8594 24.3577 11.8594 26.1403V26.7621C11.8594 28.5447 13.3046 29.9899 15.0872 29.9899H16.0579V22.9125Z" fill="#F89580"/>
<path d="M16.0579 22.9125H15.0872C13.3046 22.9125 11.8594 24.3577 11.8594 26.1403V26.7621C11.8594 28.5447 13.3046 29.9899 15.0872 29.9899H16.0579V22.9125Z" stroke="black" stroke-width="1.6" stroke-miterlimit="10" stroke-linecap="round" stroke-linejoin="round"/>
<path d="M16.0576 20.7763V32.6248C16.0576 34.2087 16.8467 35.6075 18.0531 36.4513C18.4654 36.7398 19.0327 36.441 19.0327 35.9377V33.6349C19.0327 31.9124 20.4291 30.516 22.1516 30.516H26.5181C28.2406 30.516 29.637 31.9124 29.637 33.6349V35.9377C29.637 36.441 30.2041 36.7398 30.6166 36.4513C31.8228 35.6076 32.612 34.2087 32.612 32.6248V20.7763H16.0576Z" fill="#FFCEBF"/>
<path d="M20.0498 20.7763H16.0576V32.6248C16.0576 34.2087 16.8467 35.6075 18.0531 36.4513C18.4654 36.7398 19.0327 36.441 19.0327 35.9377V33.6349C19.0327 32.7221 19.4249 31.9011 20.0499 31.3307V20.7763H20.0498Z" fill="#FFB09E"/>
<path d="M20.1809 24.2016V25.8813M28.4886 24.2016V25.8813M16.0576 20.7763V32.6248C16.0576 34.2087 16.8467 35.6075 18.0531 36.4513C18.4654 36.7398 19.0327 36.441 19.0327 35.9377V33.6349C19.0327 31.9124 20.4291 30.516 22.1516 30.516H26.5181C28.2406 30.516 29.637 31.9124 29.637 33.6349V35.9377C29.637 36.441 30.2041 36.7398 30.6166 36.4513C31.8228 35.6076 32.612 34.2087 32.612 32.6248V20.7763H16.0576Z" stroke="black" stroke-width="1.6" stroke-miterlimit="10" stroke-linecap="round" stroke-linejoin="round"/>
<path d="M22.3364 34.0546C22.9701 34.3171 23.6492 34.4522 24.3351 34.4522C25.0209 34.4522 25.7001 34.3171 26.3337 34.0546M24.0833 25.252L22.1323 27.4548L24.0833 29.0282" stroke="black" stroke-width="1.6" stroke-miterlimit="10" stroke-linecap="round" stroke-linejoin="round"/>
<path d="M32.1945 16.5078H16.4752L1.40552 22.288C0.759534 22.5357 0.937062 23.4941 1.62896 23.4941H47.0409C47.7327 23.4941 47.9102 22.5357 47.2643 22.288L32.1945 16.5078Z" fill="#022340"/>
<path d="M18.6931 18.8781H38.3744L32.1945 16.5078H16.4752L1.40547 22.288C0.759606 22.5357 0.937009 23.4941 1.62891 23.4941H6.31201L18.023 19.0023C18.2369 18.9202 18.464 18.8782 18.6931 18.8781Z" fill="#0B1C26"/>
<path d="M32.1945 16.5078H16.4752L1.40552 22.288C0.759534 22.5357 0.937062 23.4941 1.62896 23.4941H47.0409C47.7327 23.4941 47.9102 22.5357 47.2643 22.288L32.1945 16.5078Z" stroke="black" stroke-width="1.6" stroke-miterlimit="10" stroke-linecap="round" stroke-linejoin="round"/>
<path d="M32.7862 1.08227L23.3814 4.29237C22.9896 4.42608 22.6283 4.63645 22.3187 4.91122C22.0091 5.18598 21.7572 5.51964 21.5779 5.89275L16.4751 16.5078H32.1944L26.9748 7.88336L33.1715 1.70143C33.4523 1.42123 33.1616 0.954142 32.7862 1.08227Z" fill="#60B7FF"/>
<path d="M32.7862 1.08227L23.3814 4.29237C22.9896 4.42608 22.6283 4.63645 22.3187 4.91122C22.0091 5.18598 21.7572 5.51964 21.5779 5.89275L16.4751 16.5078H32.1944L26.9748 7.88336L33.1715 1.70143C33.4523 1.42123 33.1616 0.954142 32.7862 1.08227Z" fill="#022340"/>
<path d="M24.3225 7.38982C24.5019 7.01672 24.7537 6.68306 25.0633 6.40829C25.373 6.13353 25.7342 5.92316 26.126 5.78945L30.6067 4.26006L33.1715 1.70143C33.4523 1.42123 33.1616 0.954142 32.7862 1.08227L23.3814 4.29237C22.9896 4.42608 22.6283 4.63645 22.3187 4.91122C22.0091 5.18598 21.7572 5.51964 21.5779 5.89275L16.4751 16.5078H19.9395L24.3225 7.38982Z" fill="#0B1C26"/>
<path d="M32.7862 1.08227L23.3814 4.29237C22.9896 4.42608 22.6283 4.63645 22.3187 4.91122C22.0091 5.18598 21.7572 5.51964 21.5779 5.89275L16.4751 16.5078H32.1944L26.9748 7.88336L33.1715 1.70143C33.4523 1.42123 33.1616 0.954142 32.7862 1.08227Z" stroke="black" stroke-width="1.6" stroke-miterlimit="10" stroke-linecap="round" stroke-linejoin="round"/>
<path d="M29.9294 12.7653H18.2742L16.4751 16.5078H32.1944L29.9294 12.7653Z" fill="#05F283"/>
<path d="M16.4751 16.5078H19.9395L21.7384 12.7653H18.2742L16.4751 16.5078Z" fill="#2FB86E"/>
<path d="M22.7053 12.7653H18.2742L16.4751 16.5078H32.1944L29.9294 12.7653H27.0718" stroke="black" stroke-width="1.6" stroke-miterlimit="10" stroke-linecap="round" stroke-linejoin="round"/>
<path d="M44.6426 23.8068V51.3637H47.0196C47.2759 51.3637 47.5246 51.3969 47.7615 51.4589V23.8068H44.6426Z" fill="#E9B665"/>
<path d="M47.7615 51.4589V36.5536M47.7615 32.1871V23.8068H44.6426V51.3637" stroke="black" stroke-width="1.6" stroke-miterlimit="10" stroke-linecap="round" stroke-linejoin="round"/>
<path d="M43.7378 23.183C43.7378 23.3484 43.8035 23.5071 43.9205 23.624C44.0375 23.741 44.1961 23.8067 44.3616 23.8067H48.0418C48.2072 23.8067 48.3659 23.741 48.4828 23.624C48.5998 23.5071 48.6655 23.3484 48.6655 23.183V18.3759H43.7378V23.183Z" fill="#FFD15B"/>
<path d="M46.1502 23.183V18.3759H43.7383V23.183C43.7383 23.3484 43.804 23.5071 43.921 23.624C44.038 23.741 44.1966 23.8067 44.3621 23.8067H46.774C46.6085 23.8067 46.4499 23.741 46.3329 23.624C46.2159 23.5071 46.1502 23.3484 46.1502 23.183Z" fill="#FFC344"/>
<path d="M43.7378 23.183C43.7378 23.3484 43.8035 23.5071 43.9205 23.624C44.0375 23.741 44.1961 23.8067 44.3616 23.8067H48.0418C48.2072 23.8067 48.3659 23.741 48.4828 23.624C48.5998 23.5071 48.6655 23.3484 48.6655 23.183V18.3759H43.7378V23.183Z" stroke="black" stroke-width="1.6" stroke-miterlimit="10" stroke-linecap="round" stroke-linejoin="round"/>
<path d="M44.0151 51.3637C43.1992 51.3637 42.4905 51.9909 42.4601 52.8062C42.433 53.5289 42.9182 54.1412 43.5808 54.3138C42.9358 54.4817 42.459 55.0663 42.459 55.7638C42.459 56.4613 42.9358 57.0461 43.5808 57.2139C42.9358 57.3818 42.459 57.9664 42.459 58.6639C42.459 59.3614 42.9358 59.946 43.5808 60.1139C42.9181 60.2865 42.433 60.8988 42.4601 61.6215C42.4907 62.4368 43.1993 63.064 44.0151 63.064H47.0192C48.6347 63.064 49.9444 61.7544 49.9444 60.1389V54.2886C49.9444 52.6731 48.6347 51.3634 47.0192 51.3634H44.0151V51.3637Z" fill="#FFCEBF"/>
<path d="M45.4531 60.1391V54.2888C45.4531 52.9074 46.4111 51.7504 47.6988 51.4439C47.4761 51.3907 47.2481 51.3638 47.0192 51.3636H44.0151C43.1992 51.3636 42.4905 51.9909 42.4601 52.8062C42.433 53.5289 42.9182 54.1412 43.5808 54.3138C42.9358 54.4817 42.459 55.0663 42.459 55.7638C42.459 56.4613 42.9358 57.046 43.5808 57.2138C42.9358 57.3818 42.459 57.9664 42.459 58.6639C42.459 59.3614 42.9358 59.946 43.5808 60.1139C42.9181 60.2865 42.433 60.8988 42.4601 61.6215C42.4907 62.4368 43.1993 63.064 44.0151 63.064H47.0192C47.2532 63.064 47.4806 63.0357 47.6988 62.9838C46.411 62.6776 45.4531 61.5206 45.4531 60.1391Z" fill="#FFB09E"/>
<path d="M44.0151 51.3637C43.1992 51.3637 42.4905 51.9909 42.4601 52.8062C42.433 53.5289 42.9182 54.1412 43.5808 54.3138C42.9358 54.4817 42.459 55.0663 42.459 55.7638C42.459 56.4613 42.9358 57.0461 43.5808 57.2139C42.9358 57.3818 42.459 57.9664 42.459 58.6639C42.459 59.3614 42.9358 59.946 43.5808 60.1139C42.9181 60.2865 42.433 60.8988 42.4601 61.6215C42.4907 62.4368 43.1993 63.064 44.0151 63.064H47.0192C48.6347 63.064 49.9444 61.7544 49.9444 60.1389V54.2886C49.9444 52.6731 48.6347 51.3634 47.0192 51.3634H44.0151V51.3637Z" stroke="black" stroke-width="1.6" stroke-miterlimit="10" stroke-linecap="round" stroke-linejoin="round"/>
<path d="M39.3351 14.4403L43.738 18.3758H48.6657L53.0686 14.4403C53.3249 14.2112 53.1628 13.7869 52.8192 13.7869H39.5845C39.2409 13.7869 39.0788 14.2113 39.3351 14.4403Z" fill="#E9B665"/>
<path d="M43.5767 13.7869H39.5845C39.2409 13.7869 39.0788 14.2112 39.3351 14.4403L43.738 18.3758H47.7302L43.3273 14.4403C43.071 14.2113 43.2331 13.7869 43.5767 13.7869Z" fill="#D8AA5E"/>
<path d="M55.1355 1.06042V1.80896M55.1355 5.30214V6.05068M52.6404 3.55555H53.389M56.8821 3.55555H57.6307M35.4995 6.92173V7.67026M35.4995 11.1634V11.912M33.0044 9.41685H33.7529M37.2461 9.41685H37.9946M39.3353 14.4403L43.7382 18.3759H48.6659L53.0688 14.4403C53.3251 14.2112 53.163 13.7869 52.8194 13.7869H39.5847C39.2411 13.7869 39.079 14.2114 39.3353 14.4403Z" stroke="black" stroke-width="1.6" stroke-miterlimit="10" stroke-linecap="round" stroke-linejoin="round"/>
</g>
<defs>
<clipPath id="clip0_28116_235">
<rect width="58.6355" height="64" fill="white"/>
</clipPath>
</defs>
</svg>
