<svg width="64" height="64" viewBox="0 0 64 64" fill="none" xmlns="http://www.w3.org/2000/svg">
<g clip-path="url(#clip0_28119_415)">
<path d="M34.8053 9.30383V21.183H29.0386V9.30383L31.9219 6.0177L34.8053 9.30383Z" fill="#CCCCCC"/>
<path d="M34.8055 27.9062V39.7853L31.9221 43.0714L29.0387 39.7853V27.9062H34.8055ZM46.7787 21.1828V27.9062H17.064V21.1828H45.3092H46.7787Z" fill="#05F283"/>
<path d="M22.9293 21.1828V27.9063H17.064V21.1828H22.6392H22.9293Z" fill="#04C168"/>
<path d="M45.3089 21.1828H34.8051V9.30377C37.1729 9.82077 39.3065 10.9618 41.0259 12.5456H41.0273C42.9224 14.2907 44.3148 16.5728 44.9617 19.1521C45.1295 19.819 45.2456 20.498 45.3089 21.1828ZM29.0384 9.30377V21.1828H18.5332C18.5965 20.498 18.7125 19.8191 18.8802 19.1521C19.5272 16.573 20.9196 14.2907 22.8147 12.5456H22.816C24.5355 10.9618 26.6705 9.82064 29.0384 9.30377Z" fill="#022340"/>
<path d="M26.8949 12.5455H26.8958C27.8449 10.9618 29.0234 9.82065 30.3304 9.30365H29.0389C26.6711 9.82065 24.5361 10.9616 22.8166 12.5455H22.8152C20.9201 14.2906 19.5277 16.5728 18.8807 19.152C18.713 19.819 18.597 20.4979 18.5337 21.1828H24.5318C24.5662 20.5034 24.6301 19.8258 24.7233 19.152C25.0803 16.5729 25.8489 14.2908 26.8949 12.5455Z" fill="#0B1C26"/>
<path d="M20.6001 34.6398C21.2978 35.5852 21.8135 36.652 22.1211 37.7859C20.9057 38.0702 19.7276 38.5999 18.6594 39.3883C18.6333 39.4073 18.6076 39.4269 18.5822 39.4468C17.6069 40.1808 16.8143 41.0676 16.213 42.0503C14.8478 44.2695 14.4579 46.9759 15.139 49.4936C11.5615 50.3318 7.6672 49.0366 5.34784 45.8934C3.02861 42.7486 2.93999 38.6457 4.7966 35.4738C7.11158 36.9391 9.97356 37.3347 12.6027 36.5421C13.5609 36.2551 14.4878 35.8081 15.346 35.1982C15.3945 35.1639 15.4431 35.1297 15.4916 35.0939C16.526 34.3321 17.3943 33.3675 18.0436 32.2591C19.0359 32.8874 19.9028 33.6947 20.6001 34.6398Z" fill="#CCCCCC"/>
<path d="M14.8159 47.2973C14.8361 48.0397 14.9444 48.777 15.1386 49.4938C11.5611 50.3321 7.66674 49.0368 5.34737 45.8936C3.02812 42.7488 2.93949 38.6458 4.79612 35.4739C5.20503 35.7327 5.6333 35.9595 6.07712 36.1523C5.62874 38.6301 6.16274 41.2793 7.77512 43.4657C9.50762 45.8121 12.1154 47.1288 14.8159 47.2973Z" fill="#F2F2F2"/>
<path d="M48.4967 35.1982C49.355 35.8079 50.2818 36.2549 51.2401 36.5421C53.8707 37.3347 56.7312 36.9391 59.0461 35.4738C60.9026 38.6457 60.8156 42.7486 58.4949 45.8934C56.1757 49.0366 52.2812 50.3319 48.7037 49.4936C49.3863 46.9743 48.9951 44.2695 47.6312 42.0503C47.03 41.0678 46.2374 40.1823 45.262 39.4483V39.4469C45.2362 39.4283 45.2106 39.4084 45.1835 39.3884C44.1152 38.6 42.9371 38.0703 41.7231 37.786C42.0301 36.6522 42.5454 35.5853 43.2426 34.6399C43.9403 33.6948 44.8076 32.8875 45.8004 32.2593C46.4301 33.3361 47.2842 34.3058 48.351 35.0942C48.3996 35.1297 48.4482 35.1639 48.4967 35.1982Z" fill="#CCCCCC"/>
<path d="M49.0264 47.2973C49.0061 48.0397 48.8978 48.777 48.7036 49.4938C52.2811 50.3321 56.1755 49.0368 58.4949 45.8936C60.8141 42.7488 60.9027 38.6458 59.0461 35.4739C58.6372 35.7327 58.2089 35.9595 57.7651 36.1523C58.2135 38.6301 57.6794 41.2793 56.0671 43.4657C54.3346 45.8121 51.7269 47.1288 49.0264 47.2973Z" fill="#F2F2F2"/>
<path d="M28.7972 54.3107C29.8214 55.0908 30.8632 55.8474 31.9219 56.5799C25.8925 60.7629 21.0683 63.0278 21.0683 63.0278L18.4563 60.0102C22.2565 58.3094 25.6996 56.3657 28.7972 54.3107ZM15.3458 35.1982C14.4876 35.8079 13.5607 36.2549 12.6025 36.5421V36.5407C12.1005 35.631 11.6374 34.7005 11.2144 33.7516L13.0966 31.6837C13.0966 31.6836 13.8306 33.0332 15.3458 35.1982Z" fill="#D88948"/>
<path d="M45.3878 60.0102L42.7758 63.0278C42.7758 63.0278 37.9516 60.7629 31.9221 56.5799C30.8635 55.8473 29.8216 55.0907 28.7974 54.3107C24.5017 51.0446 19.9302 46.9202 16.2129 42.0504C16.8141 41.0679 17.6068 40.181 18.5821 39.4469C21.6611 43.1843 26.0754 47.7871 31.9221 52.1186C32.9449 52.8757 33.9868 53.6066 35.0469 54.3107C38.1443 56.3657 41.5876 58.3094 45.3878 60.0102ZM50.746 31.6836L52.6282 33.7515C52.2052 34.7004 51.742 35.6309 51.2401 36.5406V36.5419C50.2819 36.2549 49.355 35.8079 48.4968 35.1981C50.012 33.0332 50.746 31.6836 50.746 31.6836Z" fill="#D88948"/>
<path d="M45.262 39.4482C46.2374 40.1822 47.03 41.0677 47.6312 42.0502C43.9139 46.9201 39.3424 51.0445 35.0466 54.3106C33.9866 53.6065 32.9447 52.8756 31.9219 52.1185C37.7671 47.787 42.1815 43.1871 45.262 39.4482Z" fill="#D88948"/>
<path d="M22.815 12.5455C20.9199 14.2906 19.5276 16.5727 18.8806 19.152C16.3742 18.0881 6.3403 12.994 10.7446 1.17059C10.7446 1.17059 12.9039 10.2478 22.815 12.5455ZM53.0981 1.17059C57.5038 12.9939 47.4699 18.088 44.9621 19.152C44.3151 16.5728 42.9228 14.2906 41.0277 12.5455C50.9388 10.2478 53.0981 1.17059 53.0981 1.17059Z" fill="#CCCCCC"/>
<path d="M31.9219 6.0177V21.183H29.0386V9.30383L31.9219 6.0177Z" fill="#B3B3B3"/>
<path d="M31.9219 27.9062V43.0715L29.0386 39.7854V27.9062H31.9219Z" fill="#04C168"/>
<path d="M17.7309 19.6691C17.7097 19.7833 17.6892 19.8974 17.6707 20.0122H17.1423C16.8582 20.0122 16.5858 20.1251 16.3849 20.326C16.1841 20.5268 16.0712 20.7992 16.0712 21.0833V27.8069C16.0712 28.091 16.1841 28.3634 16.3849 28.5642C16.5858 28.7651 16.8582 28.878 17.1423 28.878H28.046V31.0387C28.0503 31.32 28.165 31.5883 28.3654 31.7856C28.5658 31.983 28.8358 32.0936 29.1171 32.0936C29.3984 32.0936 29.6683 31.983 29.8688 31.7856C30.0692 31.5883 30.1839 31.32 30.1882 31.0387V28.878H33.8128V39.2827L32.0006 41.348L30.1883 39.2827V34.1806C30.184 33.8993 30.0693 33.6311 29.8689 33.4337C29.6685 33.2363 29.3985 33.1257 29.1172 33.1257C28.8359 33.1257 28.5659 33.2363 28.3655 33.4337C28.1651 33.6311 28.0504 33.8993 28.0461 34.1806V39.6859C28.0461 39.9458 28.1406 40.1969 28.312 40.3924L31.1953 43.6785C31.2959 43.7931 31.4197 43.8848 31.5585 43.9477C31.6974 44.0106 31.848 44.0431 32.0004 44.0431C32.1528 44.0431 32.3035 44.0106 32.4423 43.9477C32.5812 43.8848 32.705 43.7931 32.8056 43.6785L35.6889 40.3924C35.8603 40.197 35.9548 39.9459 35.9548 39.6859V28.878H46.8569C47.141 28.878 47.4134 28.7651 47.6143 28.5642C47.8152 28.3634 47.928 28.091 47.9281 27.8069V21.0833C47.9281 20.7992 47.8152 20.5268 47.6143 20.3259C47.4135 20.125 47.141 20.0122 46.8569 20.0122H46.3286C46.3099 19.8976 46.2896 19.7833 46.2684 19.6692C47.8608 18.8956 50.5175 17.331 52.5424 14.7592C55.5964 10.8806 56.1626 6.01806 54.1799 0.697225C54.0999 0.481838 53.9528 0.297924 53.7601 0.172724C53.5675 0.0475247 53.3397 -0.0123022 53.1104 0.00210534C52.8812 0.0162359 52.6625 0.103675 52.4868 0.251522C52.311 0.399369 52.1874 0.599793 52.1343 0.823224C52.1145 0.905973 50.1024 8.95566 41.39 11.2708C39.6736 9.8134 37.6418 8.77416 35.463 8.24054L32.8053 5.21169C32.7048 5.09714 32.5809 5.00536 32.4421 4.94249C32.3033 4.87961 32.1526 4.84709 32.0002 4.84709C31.8478 4.84709 31.6971 4.87961 31.5583 4.94249C31.4194 5.00536 31.2956 5.09714 31.1951 5.21169L28.5373 8.24067C26.1774 8.81854 23.9896 9.98828 22.1895 11.6399C22.1823 11.6461 22.1746 11.6516 22.1675 11.6581C20.395 13.2901 19.072 15.3117 18.2907 17.5581C15.2266 15.9945 9.66123 12.0429 11.0011 4.42457C12.238 6.8348 14.5907 10.0973 18.8244 12.1488C19.0794 12.2677 19.3709 12.2815 19.636 12.1872C19.9011 12.093 20.1185 11.8982 20.2412 11.645C20.3639 11.3918 20.382 11.1005 20.2917 10.834C20.2014 10.5676 20.0099 10.3473 19.7585 10.2209C13.4716 7.17455 11.8798 0.884223 11.865 0.823349C11.8117 0.59996 11.6881 0.39959 11.5124 0.251794C11.3366 0.103999 11.118 0.0166031 10.8888 0.00249909C10.6596 -0.011605 10.4319 0.0483291 10.2394 0.173461C10.0468 0.298593 9.89956 0.482296 9.81935 0.697475C7.83724 6.01818 8.40399 10.8808 11.458 14.7592C13.4824 17.3305 16.1389 18.8953 17.7309 19.6691ZM45.7861 26.7358H18.2135V22.1544H38.5698C38.851 22.1501 39.1193 22.0354 39.3166 21.835C39.514 21.6346 39.6246 21.3646 39.6246 21.0833C39.6246 20.802 39.514 20.532 39.3166 20.3316C39.1193 20.1312 38.851 20.0165 38.5698 20.0122H35.9549V10.6121C37.597 11.1666 39.1042 12.0598 40.379 13.234C40.3826 13.2373 40.3866 13.2401 40.3902 13.2434C42.1682 14.8841 43.4171 16.9826 44.0018 19.3138C44.0598 19.5441 44.109 19.7776 44.1536 20.0122H41.8545C41.5732 20.0165 41.305 20.1312 41.1076 20.3316C40.9102 20.532 40.7996 20.802 40.7996 21.0833C40.7996 21.3646 40.9102 21.6346 41.1076 21.835C41.305 22.0354 41.5732 22.1501 41.8545 22.1544H45.7861V26.7358ZM51.7371 6.5088C52.2028 5.83898 52.6236 5.13899 52.9965 4.41345C54.3456 12.0409 48.7747 15.9947 45.7086 17.5585C45.1277 15.8891 44.245 14.3407 43.1045 12.9904C47.5021 11.5063 50.2018 8.71566 51.7371 6.5088ZM32.0004 7.5423L33.8127 9.60765V20.0123H30.1881V9.60765L32.0004 7.5423ZM23.6086 13.2439C23.6125 13.2405 23.6166 13.2375 23.6205 13.234C24.8957 12.0596 26.4035 11.1663 28.0461 10.6121V20.0123H19.846C19.8899 19.7778 19.9406 19.5446 19.998 19.3131C20.5823 16.9828 21.8309 14.8846 23.6086 13.2439Z" fill="black"/>
<path d="M60.0491 34.8333C59.9765 34.7092 59.8796 34.601 59.7643 34.5151C59.6489 34.4293 59.5175 34.3675 59.3777 34.3336C59.238 34.2996 59.0929 34.2941 58.951 34.3174C58.8091 34.3407 58.6734 34.3923 58.5519 34.4692C56.8779 35.5293 54.8832 35.9641 52.9199 35.6968C53.1878 35.1666 53.443 34.63 53.6853 34.0876C53.77 33.8975 53.7974 33.6869 53.7643 33.4815C53.7312 33.2761 53.639 33.0848 53.4989 32.931L51.6167 30.8631C51.5016 30.737 51.3581 30.6401 51.1981 30.5806C51.0381 30.5211 50.8662 30.5007 50.6967 30.521C50.5272 30.5414 50.365 30.6021 50.2236 30.6979C50.0823 30.7937 49.9658 30.9219 49.8841 31.0719C49.8781 31.0829 49.3673 32.0131 48.347 33.5365C47.7404 32.9773 47.2203 32.3311 46.8037 31.619C46.7311 31.4948 46.6342 31.3866 46.5188 31.3007C46.4035 31.2149 46.272 31.1531 46.1323 31.1191C45.9925 31.0851 45.8474 31.0796 45.7054 31.103C45.5635 31.1263 45.4278 31.1779 45.3062 31.2549C44.2008 31.9539 43.2352 32.8528 42.4589 33.9055C41.6826 34.9574 41.1091 36.1448 40.768 37.4068C40.7304 37.5456 40.7211 37.6905 40.7407 37.8329C40.7603 37.9753 40.8084 38.1124 40.8821 38.2358C40.9558 38.3593 41.0536 38.4666 41.1696 38.5515C41.2857 38.6363 41.4176 38.6969 41.5576 38.7297C42.3239 38.9095 43.0608 39.1973 43.7462 39.5843C40.2441 43.6966 36.3059 47.4166 32.0007 50.6787C27.6954 47.4165 23.7573 43.6962 20.2557 39.5833C20.9409 39.1966 21.6775 38.9092 22.4435 38.7297C22.5837 38.6969 22.7157 38.6363 22.8319 38.5514C22.948 38.4665 23.0459 38.359 23.1196 38.2354C23.1933 38.1118 23.2413 37.9747 23.2607 37.8321C23.2802 37.6895 23.2707 37.5445 23.2329 37.4057C22.8909 36.1435 22.3167 34.9561 21.5399 33.9041C20.7644 32.8521 19.7996 31.9537 18.6951 31.2551C18.5736 31.1782 18.438 31.1265 18.2961 31.1031C18.1543 31.0797 18.0092 31.0851 17.8695 31.119C17.7298 31.1529 17.5983 31.2146 17.483 31.3004C17.3676 31.3862 17.2707 31.4943 17.1981 31.6184C16.7807 32.3308 16.26 32.9774 15.6531 33.5372C14.6326 32.0137 14.1217 31.0832 14.116 31.0727C14.0344 30.9227 13.918 30.7943 13.7767 30.6983C13.6353 30.6024 13.4731 30.5417 13.3035 30.5212C13.1339 30.5006 12.9618 30.5209 12.8017 30.5805C12.6415 30.6401 12.498 30.7372 12.3831 30.8636L10.5009 32.9315C10.3609 33.0853 10.2687 33.2766 10.2355 33.482C10.2024 33.6873 10.2298 33.8979 10.3144 34.088C10.5566 34.6306 10.8118 35.1673 11.0799 35.6976C9.11647 35.9649 7.12174 35.5301 5.44779 34.4697C5.3263 34.3928 5.19056 34.3411 5.04866 34.3178C4.90677 34.2945 4.76164 34.3001 4.62192 34.3341C4.48217 34.368 4.35069 34.4297 4.23533 34.5156C4.11998 34.6014 4.02312 34.7097 3.95056 34.8338C2.90649 36.6146 2.4081 38.6627 2.51718 40.7242C2.62625 42.7856 3.33801 44.7697 4.56418 46.4304C5.54355 47.7595 6.82148 48.8399 8.29497 49.5845C9.76846 50.3291 11.3963 50.7172 13.0472 50.7173C13.8486 50.7173 14.6581 50.6258 15.4615 50.4377C15.6014 50.4049 15.7333 50.3443 15.8493 50.2594C15.9653 50.1746 16.0631 50.0673 16.1368 49.9439C16.2105 49.8205 16.2585 49.6835 16.2782 49.5411C16.2978 49.3987 16.2886 49.2538 16.2511 49.1151C15.7877 47.4025 15.8867 45.5871 16.5037 43.9466C18.3587 46.2175 20.4991 48.4603 22.8863 50.6313C23.0832 50.8109 23.3401 50.9103 23.6065 50.91C23.8227 50.91 24.0339 50.8446 24.2122 50.7224C24.3906 50.6002 24.5278 50.4269 24.6058 50.2253C24.6838 50.0236 24.6989 49.8031 24.6493 49.5927C24.5996 49.3822 24.4874 49.1918 24.3274 49.0463C21.7775 46.7274 19.5222 44.3284 17.6128 41.9068C17.8893 41.5338 18.1968 41.1849 18.5319 40.8637C22.3344 45.3478 26.6397 49.3799 31.3631 52.8807C32.4007 53.6486 33.4575 54.39 34.5327 55.1043C37.4672 57.0515 40.5385 58.7841 43.7226 60.2888L42.5858 61.6022C41.0345 60.8169 37.1578 58.7554 32.6101 55.6007C31.5644 54.8771 30.5354 54.1297 29.5239 53.3592C28.6675 52.7086 27.8244 52.0408 26.9949 51.3563C26.8864 51.2668 26.7614 51.1994 26.6269 51.1582C26.4925 51.117 26.3512 51.1026 26.2112 51.116C26.0712 51.1294 25.9352 51.1702 25.8109 51.2361C25.6867 51.3021 25.5767 51.3919 25.4871 51.5003C25.3976 51.6088 25.3303 51.7338 25.289 51.8683C25.2478 52.0028 25.2334 52.1441 25.2468 52.2841C25.2602 52.4241 25.301 52.5601 25.367 52.6844C25.4329 52.8086 25.5227 52.9186 25.6311 53.0082C26.0869 53.3844 26.554 53.7607 27.027 54.1339C24.1595 55.9505 21.162 57.5623 18.0974 58.9339C17.945 59.0022 17.8106 59.1052 17.7051 59.2347C17.5995 59.3642 17.5257 59.5166 17.4895 59.6797C17.4534 59.8428 17.4558 60.0121 17.4967 60.1741C17.5376 60.3361 17.6158 60.4862 17.7251 60.6126L20.3372 63.6302C20.4899 63.8068 20.6962 63.9286 20.9245 63.9771C21.1529 64.0256 21.3909 63.9981 21.6022 63.8988C21.7957 63.808 26.2581 61.698 32.0007 57.7811C37.7433 61.698 42.2058 63.8081 42.3993 63.8988C42.6106 63.9981 42.8485 64.0255 43.0769 63.977C43.3052 63.9286 43.5115 63.8068 43.6642 63.6302L46.2762 60.6126C46.3857 60.4863 46.464 60.3362 46.505 60.1742C46.546 60.0121 46.5486 59.8428 46.5124 59.6796C46.4762 59.5165 46.4023 59.364 46.2967 59.2345C46.191 59.1051 46.0565 59.0021 45.904 58.9339C42.8389 57.562 39.841 55.95 36.9734 54.1333C41.0944 50.8821 44.6235 47.4651 47.4965 43.9461C48.1136 45.5876 48.2125 47.4031 47.7486 49.1147C47.711 49.2535 47.7016 49.3984 47.7212 49.5408C47.7408 49.6832 47.7888 49.8203 47.8625 49.9437C47.9362 50.0672 48.0339 50.1746 48.15 50.2594C48.266 50.3443 48.398 50.4049 48.538 50.4377C49.3293 50.6234 50.1394 50.7172 50.9522 50.7173C52.6031 50.7172 54.2309 50.3292 55.7044 49.5846C57.1778 48.84 58.4557 47.7597 59.4351 46.4306C60.6617 44.77 61.3738 42.7858 61.483 40.7241C61.5921 38.6625 61.0935 36.6142 60.0491 34.8333ZM12.9945 33.3741C13.2912 33.8482 13.5958 34.3174 13.9082 34.7813C13.6748 34.9062 13.4356 35.0199 13.1914 35.1219C12.9729 34.7022 12.7629 34.2782 12.5614 33.8501L12.9945 33.3741ZM6.28841 45.1581C5.4169 43.9779 4.86959 42.5901 4.70093 41.1327C4.53227 39.6753 4.74813 38.1991 5.32704 36.8511C7.71209 38.0141 10.4481 38.2346 12.9886 37.4686C14.0781 37.1422 15.1065 36.6387 16.0497 35.9686C16.1023 35.9316 16.1545 35.8942 16.2063 35.8563C17.0402 35.2425 17.7788 34.5089 18.3982 33.6792C18.9306 34.1182 19.4071 34.621 19.8167 35.1763C20.2268 35.7315 20.5667 36.3353 20.8287 36.9739C19.8562 37.3195 18.9401 37.8071 18.1103 38.4208C18.0769 38.4449 18.0432 38.4708 18.0097 38.4968C16.9501 39.2955 16.0645 40.2697 15.3778 41.3918C15.3742 41.3976 15.3711 41.4036 15.3676 41.4095C15.3643 41.4151 15.3608 41.4207 15.3577 41.4264C14.0627 43.551 13.5665 46.0816 13.9414 48.5268C12.4826 48.6825 11.0086 48.4534 9.66594 47.8624C8.32328 47.2713 7.15881 46.339 6.28841 45.1581ZM21.4149 61.6015L20.2782 60.2883C23.2163 58.9014 26.0839 57.2999 28.831 55.5182C29.2583 55.8375 29.6887 56.1529 30.122 56.4642C26.1373 59.1288 22.8212 60.8892 21.4149 61.6015ZM51.0053 33.3741L51.4384 33.8501C51.2368 34.2782 51.0268 34.7023 50.8083 35.1221C50.5641 35.0201 50.3249 34.9064 50.0916 34.7815C50.404 34.3175 50.7086 33.8483 51.0053 33.3741ZM35.0828 52.8914C34.6522 52.5986 34.2247 52.3013 33.8003 51.9994C38.07 48.7078 41.9811 44.9756 45.469 40.8647C45.8038 41.1853 46.111 41.5335 46.3872 41.9058C43.3941 45.7037 39.5964 49.3938 35.0828 52.8914ZM57.7116 45.158C56.8414 46.3389 55.6769 47.2713 54.3343 47.8624C52.9917 48.4534 51.5176 48.6825 50.0589 48.5267C50.4364 46.0692 49.9337 43.5236 48.6236 41.3919C47.9365 40.2692 47.0487 39.2937 45.9847 38.4932L45.9686 38.4799L45.8982 38.4272C45.056 37.8056 44.1426 37.3193 43.1719 36.9742C43.698 35.6923 44.5331 34.5604 45.6027 33.6795C46.2182 34.505 46.9521 35.2346 47.7952 35.8574C47.8457 35.8946 47.8963 35.9304 47.9552 35.9719C48.8936 36.6387 49.9219 37.1423 51.0101 37.4682C53.5511 38.2343 56.2876 38.0139 58.6733 36.8511C59.2523 38.1991 59.4682 39.6753 59.2995 41.1327C59.1308 42.5901 58.5833 43.9779 57.7116 45.158Z" fill="black"/>
</g>
<defs>
<clipPath id="clip0_28119_415">
<rect width="64" height="64" fill="white"/>
</clipPath>
</defs>
</svg>
