<svg width="60" height="64" viewBox="0 0 60 64" fill="none" xmlns="http://www.w3.org/2000/svg">
<g clip-path="url(#clip0_28110_210)">
<path d="M30.0642 17.548V34.0642C28.3609 34.0642 26.8125 34.7562 25.6876 35.8812C24.5621 37.0062 23.8706 38.5546 23.8706 40.2577H12.2063C11.1211 35.6644 10.4512 30.2138 10.4512 23.7415C10.4512 23.7415 13.796 23.5867 17.9557 22.7199C19.3802 22.4205 20.908 22.0282 22.4254 21.5339C25.2128 20.6231 27.9689 19.3442 30.0642 17.548Z" fill="#05F283"/>
<path d="M25.6874 44.6348C26.8124 45.7598 28.3608 46.4513 30.0639 46.4513V63.9998C30.0639 63.9998 22.1879 61.9252 16.4177 51.4685C15.7363 50.2401 15.0861 48.8979 14.4874 47.4322C13.6203 45.3162 12.8356 42.9316 12.2061 40.2578H23.8704C23.8704 41.9614 24.562 43.5098 25.6874 44.6348Z" fill="#022340"/>
<path d="M34.441 35.8811C33.3146 34.7561 31.7662 34.0641 30.064 34.0641V17.5479C32.1597 19.3327 34.9159 20.614 37.7017 21.5328C39.2203 22.0273 40.747 22.4194 42.1714 22.7188C46.3327 23.5868 49.6769 23.7415 49.6769 23.7415C49.6769 30.2138 49.006 35.6644 47.9224 40.2577H36.2575C36.2575 38.5544 35.5659 37.0061 34.441 35.8811Z" fill="#022340"/>
<path d="M49.6101 23.7375H49.5933C49.3439 23.7233 48.4841 23.6694 47.2286 23.5272C47.2275 23.5259 47.2265 23.5259 47.2265 23.5259C46.725 23.4694 46.1625 23.3993 45.5491 23.31H45.547C45.5409 29.7476 44.8722 35.6851 43.7935 40.2577H47.9225C49.0063 35.6644 49.6771 30.2138 49.6771 23.7415C49.6771 23.7415 49.6505 23.7405 49.6101 23.7375Z" fill="#0B1C26"/>
<path d="M34.441 44.6348C35.5661 43.5098 36.2575 41.9614 36.2575 40.2578H47.9224C47.2924 42.9317 46.5082 45.3162 45.6411 47.4322C45.0423 48.8979 44.3916 50.2401 43.7107 51.4684C37.94 61.9252 30.064 63.9998 30.064 63.9998V46.4513C31.7662 46.4513 33.3146 45.7597 34.441 44.6348Z" fill="#05F283"/>
<path d="M41.5121 47.4322C40.9134 48.8979 40.2626 50.2401 39.5817 51.4684C36.5015 57.0516 32.8255 60.2362 30.064 61.9993V63.9998C30.064 63.9998 37.9401 61.9252 43.7107 51.4685C44.3916 50.2401 45.0423 48.8979 45.6411 47.4322C46.5082 45.3162 47.2924 42.9316 47.9224 40.2578H43.7933C43.1623 42.9317 42.3791 45.3162 41.512 47.4322H41.5121Z" fill="#04C168"/>
<path d="M4.62953 0.856417C5.19701 1.48545 5.39314 2.31204 5.23843 3.08623C5.13405 3.61243 4.86682 4.11849 4.43288 4.50043C4.01631 4.87799 3.48626 5.1067 2.92578 5.15076C2.15158 5.21269 1.34668 4.93398 0.789254 4.30443C-0.160427 3.24094 -0.0777172 1.60997 0.985384 0.660287C2.04887 -0.289394 3.6783 -0.206685 4.62953 0.856417ZM13.4436 12.2526L18.3791 7.83477L18.9043 11.5197L15.8911 14.2139L12.815 16.9694L9.8111 19.6644L6.19818 18.7355L11.1325 14.3171L13.4436 12.2526ZM59.1428 0.660287C60.2064 1.60997 60.289 3.24094 59.3394 4.30443C58.782 4.93411 57.9765 5.21282 57.2023 5.15076C56.6644 5.10947 56.1287 4.89269 55.6951 4.50043C55.2617 4.11849 54.9922 3.61243 54.8902 3.08623C54.735 2.31204 54.9315 1.48545 55.4993 0.856417C56.4488 -0.206685 58.0799 -0.289394 59.1428 0.660287Z" fill="#011526"/>
<path d="M9.27471 7.59736L5.23844 3.08624C5.13405 3.61244 4.86682 4.1185 4.43288 4.50044C4.01631 4.878 3.48627 5.10671 2.92578 5.15077L4.89766 7.35994L7.81896 10.6215L11.1325 14.3171L13.4435 12.2526L12.1945 10.8579L9.27471 7.59736ZM55.6953 4.50057C55.2617 4.11851 54.9921 3.61244 54.8903 3.08624L50.8541 7.59723L47.9327 10.8579L46.6836 12.2526L48.9962 14.3171L52.3097 10.6216L55.2305 7.34936L57.2023 5.15077C56.6655 5.10948 56.1287 4.8927 55.6952 4.50044L55.6953 4.50057Z" fill="#656D78"/>
<path d="M46.6838 12.2526L48.9963 14.3171L53.9303 18.7355L50.3174 19.6645L47.3134 16.9694L44.2362 14.2138L41.2231 11.5197L41.7499 7.83478L46.6838 12.2526Z" fill="#011526"/>
<path d="M27.9998 63.168C28.0029 63.1691 28.0062 63.1711 28.0083 63.1721C28.0865 63.2104 28.159 63.2422 28.2332 63.2784C28.3602 63.3395 28.4842 63.3949 28.5997 63.4468C28.6803 63.4817 28.7629 63.5189 28.8371 63.5512C28.9777 63.6106 29.1087 63.6645 29.2261 63.7099C29.3007 63.7387 29.3678 63.7649 29.4318 63.7886C29.4968 63.8112 29.5588 63.8349 29.6132 63.8535C29.6812 63.8773 29.7423 63.8989 29.7962 63.9166C29.8517 63.9347 29.9075 63.9534 29.9459 63.965L30.0119 63.9857C30.0326 63.9907 30.0643 63.9999 30.0643 63.9999V61.9992C29.2953 62.4907 28.5936 62.8777 27.9998 63.168ZM48.9062 9.77215L47.9329 10.8589L46.9716 11.9315L51.3417 11.7005L52.3098 10.6214L53.2822 9.5328L48.9062 9.77215ZM51.8256 6.51214L50.8542 7.59731L49.8809 8.68299L54.2574 8.44053L55.2307 7.3493L56.1869 6.28427L51.8256 6.51214ZM12.1948 10.8589L11.2165 9.76609L6.81674 9.50157L7.81932 10.6216L8.79352 11.7076L13.1893 11.9688L12.1948 10.8589ZM9.27494 7.59731L8.30204 6.51007L3.93066 6.27472L4.89789 7.35988L5.86112 8.43447L10.2189 8.65228L9.27494 7.59731Z" fill="#022340"/>
<path d="M19.0104 40.9876C18.9146 40.8918 18.8386 40.778 18.7869 40.6527C18.7351 40.5275 18.7087 40.3933 18.709 40.2578C18.709 39.984 18.8177 39.7214 19.0113 39.5278C19.2049 39.3343 19.4675 39.2255 19.7412 39.2255H24.9026C25.4737 39.2255 25.9348 39.6882 25.9348 40.2578C25.9348 40.8289 25.4737 41.29 24.9026 41.29H19.7412C19.6055 41.2903 19.471 41.2637 19.3456 41.2118C19.2202 41.1599 19.1063 41.0837 19.0104 40.9876ZM34.4943 40.9876C34.35 40.8432 34.2517 40.6593 34.2119 40.4591C34.1721 40.2589 34.1926 40.0514 34.2707 39.8628C34.3488 39.6742 34.4811 39.513 34.6508 39.3995C34.8205 39.2861 35.02 39.2255 35.2242 39.2255H40.3844C40.9555 39.2255 41.4167 39.6882 41.4167 40.2578C41.4167 40.8289 40.9555 41.29 40.3855 41.29H35.2242C35.0885 41.2904 34.9542 41.2639 34.8289 41.2119C34.7037 41.16 34.5899 41.0838 34.4943 40.9876ZM22.7629 48.5904C22.4895 48.5897 22.2274 48.4806 22.0342 48.2871C21.9382 48.1912 21.8622 48.0773 21.8103 47.9519C21.7584 47.8266 21.7318 47.6922 21.7319 47.5566C21.7319 47.4209 21.7588 47.2866 21.8108 47.1613C21.8628 47.036 21.939 46.9222 22.0351 46.8264L25.6844 43.1771C25.7801 43.0812 25.8938 43.005 26.019 42.953C26.1442 42.9011 26.2784 42.8743 26.4139 42.8743C26.5495 42.8743 26.6837 42.9011 26.8089 42.953C26.9341 43.005 27.0478 43.0812 27.1435 43.1771C27.2395 43.2729 27.3156 43.3867 27.3676 43.5119C27.4196 43.6371 27.4463 43.7714 27.4463 43.907C27.4463 44.0426 27.4196 44.1769 27.3676 44.3021C27.3156 44.4273 27.2395 44.5411 27.1435 44.6369L23.4948 48.2859C23.399 48.3825 23.285 48.4592 23.1594 48.5115C23.0337 48.5637 22.899 48.5906 22.7629 48.5904ZM33.7121 37.6414C33.5766 37.6415 33.4423 37.6148 33.317 37.5629C33.1918 37.511 33.078 37.4349 32.9822 37.3389C32.5785 36.9362 32.5785 36.2829 32.9822 35.8792L36.6315 32.2301C37.0347 31.8262 37.6874 31.8273 38.0906 32.2301C38.1866 32.3259 38.2627 32.4396 38.3147 32.5649C38.3666 32.6901 38.3934 32.8243 38.3934 32.9599C38.3934 33.0955 38.3666 33.2298 38.3147 33.355C38.2627 33.4802 38.1866 33.594 38.0906 33.6897L34.442 37.3389C34.3463 37.435 34.2326 37.5112 34.1073 37.5631C33.982 37.615 33.8477 37.6416 33.7121 37.6414ZM30.7928 51.3128C30.6046 51.4982 30.3466 51.6142 30.0628 51.6126C29.4933 51.6142 29.0306 51.1515 29.0306 50.5804L29.0295 45.4191C29.0306 44.8485 29.4923 44.3868 30.0618 44.3868C30.6329 44.3868 31.0951 44.8485 31.0941 45.4191L31.0951 50.5804C31.0953 50.7163 31.0688 50.851 31.0169 50.9767C30.965 51.1024 30.8888 51.2166 30.7928 51.3128ZM30.7928 35.8288C30.5984 36.0218 30.3357 36.1301 30.0618 36.1303C29.4923 36.1313 29.0306 35.6675 29.0306 35.099V29.9377C29.0295 29.3666 29.4923 28.9055 30.0628 28.9055C30.6329 28.9055 31.0941 29.3666 31.0951 29.9377L31.0941 35.098C31.0946 35.2337 31.0682 35.3681 31.0165 35.4935C30.9648 35.619 30.8887 35.7329 30.7928 35.8288ZM38.3955 47.5582C38.394 47.8321 38.2845 48.0944 38.0906 48.288C37.6893 48.6919 37.0347 48.6919 36.6315 48.2871L32.9812 44.6388C32.5786 44.2331 32.5776 43.5819 32.9803 43.1792C33.3849 42.7749 34.0382 42.7734 34.4409 43.1792L38.0906 46.8273C38.2932 47.0315 38.3955 47.294 38.3955 47.5582ZM27.4463 36.611C27.4457 36.885 27.3364 37.1475 27.1424 37.341C26.7402 37.7447 26.0876 37.7427 25.6844 37.341L22.0351 33.6906C21.6304 33.2881 21.6314 32.6358 22.0351 32.231C22.2288 32.0378 22.4913 31.9293 22.7649 31.9293C23.0386 31.9293 23.301 32.0378 23.4948 32.231L27.1426 35.8814C27.2389 35.9769 27.3154 36.0905 27.3676 36.2158C27.4197 36.341 27.4464 36.4754 27.4463 36.611Z" fill="#011526"/>
<path d="M25.6876 35.8812C26.8127 34.7562 28.3611 34.0641 30.0642 34.0641C31.7663 34.0641 33.3146 34.7562 34.4412 35.8812C35.5663 37.0062 36.2578 38.5546 36.2578 40.2577C36.2578 41.9613 35.5661 43.5097 34.4412 44.6348C33.3148 45.7598 31.7664 46.4513 30.0642 46.4513C28.3609 46.4513 26.8126 45.7597 25.6876 44.6348C24.5621 43.5097 23.8706 41.9613 23.8706 40.2577C23.8706 38.5545 24.5622 37.0061 25.6876 35.8812Z" fill="#011C33"/>
<path d="M45.6412 47.4322L56.872 59.9947L56.7068 62.916L53.7853 62.7508L43.7107 51.4685C44.3916 50.2401 45.0424 48.8979 45.6412 47.4322ZM47.313 16.9694L42.183 22.6876L42.1713 22.7188C40.7469 22.4195 39.2202 22.0272 37.7016 21.5329L37.7133 21.4916L44.2359 14.2128L47.313 16.9694ZM22.4153 21.4916L22.4253 21.5329C20.9076 22.0273 19.3799 22.4195 17.9556 22.7188L17.9454 22.6876L12.8148 16.9694L15.8899 14.2127L22.4153 21.4916ZM16.4177 51.4685L6.34255 62.7507L3.42125 62.9161L3.25635 59.9947L14.4874 47.4321C15.0861 48.8979 15.7363 50.2401 16.4177 51.4685Z" fill="url(#paint0_linear_28110_210)"/>
</g>
<defs>
<linearGradient id="paint0_linear_28110_210" x1="30.0642" y1="14.2127" x2="30.0642" y2="62.9161" gradientUnits="userSpaceOnUse">
<stop stop-color="white"/>
<stop offset="1" stop-color="#C5C9F7"/>
</linearGradient>
<clipPath id="clip0_28110_210">
<rect width="60" height="64.0001" fill="white"/>
</clipPath>
</defs>
</svg>
