<svg xmlns="http://www.w3.org/2000/svg" version="1.1" xmlns:xlink="http://www.w3.org/1999/xlink" width="512" height="512" x="0" y="0" viewBox="0 0 64 64" style="enable-background:new 0 0 512 512" xml:space="preserve" class="hovered-paths"><g><path fill="#ccd1d9" d="M25 2.5c-8.28 0-15 6.71-15 15v8.811L25 23.5l15 2.811V17.5c0-8.29-6.72-15-15-15z" opacity="1" data-original="#ccd1d9" class=""></path><path fill="#ed5565" d="M30 61.5H20c0-2.76 2.24-5 5-5s5 2.24 5 5z" opacity="1" data-original="#ed5565"></path><path fill="#a0d468" d="M59 24.5v9H49v-9h-4l9-11.01 9 11.01z" opacity="1" data-original="#a0d468" class=""></path><path fill="#656d78" d="M14 16.5h7v3h-7zM29 16.5h7v3h-7z" opacity="1" data-original="#656d78" class=""></path><path fill="#e6e9ed" d="M10 26.311 25 23.5l15 2.811 1 .189v9L33 40l-8 4.5-8-4.5-8-4.5v-9z" opacity="1" data-original="#e6e9ed" class="hovered-path"></path><path fill="#ccd1d9" d="M33 40v5.5l-8 4-8-4V40l8 4.5z" opacity="1" data-original="#ccd1d9" class=""></path><path fill="#e6e9ed" d="M49 53.5v7c0 .55-.45 1-1 1h-4c-7-6-7-16-7-16h4c4.42 0 8 3.58 8 8z" opacity="1" data-original="#e6e9ed" class="hovered-path"></path><path fill="#656d78" d="m25 49.5 8-4h4s0 10 7 16H30c0-2.76-2.24-5-5-5s-5 2.24-5 5H6c7-6 7-16 7-16h4z" opacity="1" data-original="#656d78" class=""></path><path fill="#e6e9ed" d="M9 45.5h4s0 10-7 16H2c-.55 0-1-.45-1-1v-7c0-4.42 3.58-8 8-8z" opacity="1" data-original="#e6e9ed" class="hovered-path"></path><path d="M1 54.503a1 1 0 0 1-1-1c0-4.964 4.038-9.002 9.002-9.002a1 1 0 1 1 0 2A7.01 7.01 0 0 0 2 53.503a1 1 0 0 1-1 1zM49 54.502a1 1 0 0 1-1-1c0-3.859-3.141-7-7-7a1 1 0 1 1 0-2c4.963 0 9 4.037 9 9a1 1 0 0 1-1 1z" fill="#000000" opacity="1" data-original="#000000" class=""></path><path d="m17 46.502-7.998-.001a1 1 0 1 1 0-2l7.998.001a1 1 0 1 1 0 2zM41 46.502l-8-.001a1 1 0 1 1 0-2l8 .001a1 1 0 1 1 0 2zM1.001 61.5a1 1 0 0 1-1-1L0 53.503a1 1 0 1 1 2 0l.001 6.997a1 1 0 0 1-1 1z" fill="#000000" opacity="1" data-original="#000000" class=""></path><path d="M2.001 62.5c-1.103 0-2-.897-2-2a1 1 0 1 1 2 0v.002a.998.998 0 1 1 0 1.998zM48 62.5a1 1 0 1 1 0-2h.002a.998.998 0 1 1 1.998 0c0 1.103-.897 2-2 2z" fill="#000000" opacity="1" data-original="#000000" class=""></path><path d="M49 61.5a1 1 0 0 1-1-1v-6.998a1 1 0 1 1 2 0V60.5a1 1 0 0 1-1 1z" fill="#000000" opacity="1" data-original="#000000" class=""></path><path d="M48 62.5H2.001a1 1 0 1 1 0-2H48a1 1 0 1 1 0 2zM17 46.502a1 1 0 0 1-1-1V40a1 1 0 1 1 2 0v5.502a1 1 0 0 1-1 1zM33 46.501a1 1 0 0 1-1-1V40a1 1 0 1 1 2 0v5.501a1 1 0 0 1-1 1z" fill="#000000" opacity="1" data-original="#000000" class=""></path><path d="M24.999 50.502c-.15 0-.303-.034-.446-.105l-8-4a1 1 0 0 1 .895-1.789l8 4a1 1 0 0 1-.449 1.894z" fill="#000000" opacity="1" data-original="#000000" class=""></path><path d="M25.001 50.502a1 1 0 0 1-.449-1.895l8-4.001a1 1 0 0 1 .895 1.789l-8 4.001a.99.99 0 0 1-.446.106zM8.999 27.5a.998.998 0 0 1-.183-1.982l16-3a.998.998 0 1 1 .369 1.965l-16 3a1.081 1.081 0 0 1-.186.017z" fill="#000000" opacity="1" data-original="#000000" class=""></path><path d="M41.001 27.5a.993.993 0 0 1-.186-.018l-16-3a1 1 0 1 1 .369-1.965l16 3a1 1 0 0 1-.183 1.983zM40 18.5a1 1 0 0 1-1-1c0-7.72-6.28-14-14-14s-14 6.28-14 14a1 1 0 1 1-2 0c0-8.822 7.178-16 16-16s16 7.178 16 16a1 1 0 0 1-1 1z" fill="#000000" opacity="1" data-original="#000000" class=""></path><path d="M10 27.313a1 1 0 0 1-1-1V17.5a1 1 0 1 1 2 0v8.813a1 1 0 0 1-1 1zM40 27.313a1 1 0 0 1-1-1V17.5a1 1 0 1 1 2 0v8.813a1 1 0 0 1-1 1zM25 20.5a1 1 0 0 1-1-1v-13a1 1 0 1 1 2 0v13a1 1 0 0 1-1 1zM25 40.5a1 1 0 0 1-1-1v-11a1 1 0 1 1 2 0v11a1 1 0 0 1-1 1zM30 37.688a1 1 0 0 1-1-1V29.5a1 1 0 1 1 2 0v7.188a1 1 0 0 1-1 1zM35 34.875a1 1 0 0 1-1-1v-3.5a1 1 0 1 1 2 0v3.5a1 1 0 0 1-1 1zM20 37.688a1 1 0 0 1-1-1V29.5a1 1 0 1 1 2 0v7.188a1 1 0 0 1-1 1zM15 34.875a1 1 0 0 1-1-1v-3.5a1 1 0 1 1 2 0v3.5a1 1 0 0 1-1 1z" fill="#000000" opacity="1" data-original="#000000" class=""></path><path d="M9 36.5a1 1 0 0 1-1-1v-9a1 1 0 1 1 2 0v9a1 1 0 0 1-1 1z" fill="#000000" opacity="1" data-original="#000000" class=""></path><path d="M24.999 45.5a.986.986 0 0 1-.489-.129l-16-9a1 1 0 1 1 .98-1.742l16 9a1 1 0 0 1-.491 1.871zM41 36.5a1 1 0 0 1-1-1v-9a1 1 0 1 1 2 0v9a1 1 0 0 1-1 1z" fill="#000000" opacity="1" data-original="#000000" class=""></path><path d="M25.001 45.5a1 1 0 0 1-.491-1.871l16-9a.997.997 0 0 1 1.361.381.998.998 0 0 1-.381 1.361l-16 9a.986.986 0 0 1-.489.129zM21 20.5h-7a1 1 0 0 1-1-1v-3a1 1 0 0 1 1-1h7a1 1 0 0 1 1 1v3a1 1 0 0 1-1 1zm-6-2h5v-1h-5zM36 20.5h-7a1 1 0 0 1-1-1v-3a1 1 0 0 1 1-1h7a1 1 0 0 1 1 1v3a1 1 0 0 1-1 1zm-6-2h5v-1h-5zM44 62.5a.993.993 0 0 1-.65-.241C36.084 56.031 36 45.929 36 45.502c0-.552.447-.999.999-.999H37a1 1 0 0 1 1 .998c0 .096.096 9.621 6.65 15.24.42.359.469.99.108 1.409a.99.99 0 0 1-.758.35zM6 62.5a.993.993 0 0 1-.759-.35.998.998 0 0 1 .108-1.409C11.924 55.105 12 45.598 12 45.502a1 1 0 1 1 2 0c0 .427-.084 10.529-7.35 16.757A.993.993 0 0 1 6 62.5zM25 53.5a1 1 0 0 1-1-1v-2.998a1 1 0 1 1 2 0V52.5a1 1 0 0 1-1 1zM30 62.5a1 1 0 0 1-1-1c0-2.206-1.794-4-4-4s-4 1.794-4 4a1 1 0 1 1-2 0c0-3.309 2.691-6 6-6s6 2.691 6 6a1 1 0 0 1-1 1zM63.001 25.5a.998.998 0 0 1-.775-.367l-8.228-10.057-8.227 10.057a1 1 0 0 1-1.549-1.265l9.001-11.003c.381-.465 1.168-.465 1.549 0l9.002 11.003a1 1 0 0 1-.773 1.632z" fill="#000000" opacity="1" data-original="#000000" class=""></path><path d="M48.998 34.5a1 1 0 0 1-1-1v-9a1 1 0 1 1 2 0v9a1 1 0 0 1-1 1z" fill="#000000" opacity="1" data-original="#000000" class=""></path><path d="M58.998 34.5h-10a1 1 0 1 1 0-2h10a1 1 0 1 1 0 2z" fill="#000000" opacity="1" data-original="#000000" class=""></path><path d="M58.998 34.5a1 1 0 0 1-1-1v-9a1 1 0 1 1 2 0v9a1 1 0 0 1-1 1zM58.999 37.5H48.998a1 1 0 1 1 0-2h10.001a1 1 0 1 1 0 2zM58.999 40.5H48.998a1 1 0 1 1 0-2h10.001a1 1 0 1 1 0 2zM58.999 43.5H48.998a1 1 0 1 1 0-2h10.001a1 1 0 1 1 0 2zM48.998 25.5h-4.001a1 1 0 1 1 0-2h4.001a1 1 0 1 1 0 2z" fill="#000000" opacity="1" data-original="#000000" class=""></path><path d="M63 25.5h-4.002a1 1 0 1 1 0-2H63a1 1 0 1 1 0 2zM56 27.5h-4a1 1 0 1 1 0-2h4a1 1 0 1 1 0 2z" fill="#000000" opacity="1" data-original="#000000" class=""></path><path d="M54 29.499a1 1 0 0 1-1-1v-3.998a1 1 0 1 1 2 0v3.998a1 1 0 0 1-1 1zM50 11.5a1 1 0 0 1-1-1v-5a1 1 0 1 1 2 0v5a1 1 0 0 1-1 1zM54.001 11.5a1 1 0 0 1-.896-.553l-1.501-3.001a1 1 0 0 1 1.789-.895l1.501 3.001a1 1 0 0 1-.893 1.448z" fill="#000000" opacity="1" data-original="#000000" class=""></path><path d="M53.999 11.5a1 1 0 0 1-.893-1.447l1.5-3.001a1 1 0 0 1 1.789.895l-1.5 3.001a1 1 0 0 1-.896.552zM58.001 11.5a1 1 0 0 1-1-1v-5a1 1 0 1 1 2 0v5a1 1 0 0 1-1 1z" fill="#000000" opacity="1" data-original="#000000" class=""></path></g></svg>