<svg width="64" height="64" viewBox="0 0 64 64" fill="none" xmlns="http://www.w3.org/2000/svg">
<path d="M42.6812 31.8698H21.3189L9.61091 37.627C8.08617 38.3768 6.80197 39.5387 5.90389 40.9811C5.00582 42.4235 4.5298 44.0886 4.52979 45.7878V61.8125C4.52979 62.5029 5.08941 63.0625 5.77979 63.0625H58.2202C58.9105 63.0625 59.4702 62.5029 59.4702 61.8125V45.7878C59.4701 44.0886 58.9941 42.4235 58.0961 40.9811C57.198 39.5387 55.9138 38.3768 54.389 37.627L42.6812 31.8698Z" fill="#EEECEE"/>
<path d="M54.3892 37.627L42.6812 31.8698H38.334L38.4014 33.4948L50.1094 39.252C51.6341 40.0018 52.9183 41.1637 53.8164 42.6061C54.7144 44.0485 55.1905 45.7136 55.1905 47.4128V61.8125C55.1905 62.5029 54.6309 63.0625 53.9405 63.0625H58.2202C58.9106 63.0625 59.4702 62.5029 59.4702 61.8125V45.7878C59.4703 44.0886 58.9943 42.4235 58.0962 40.9811C57.1982 39.5387 55.914 38.3768 54.3892 37.627Z" fill="#E5E1E5"/>
<path d="M54.389 37.627L42.681 31.8698H38.668V34.1074C38.668 35.3054 38.9924 36.481 39.6068 37.5095C40.2212 38.538 41.1026 39.3809 42.1575 39.9488L49.8303 44.079C50.57 44.4772 51.188 45.0682 51.6188 45.7893C52.0496 46.5104 52.2771 47.3347 52.2771 48.1748V49.9169C52.2771 53.0779 54.8396 55.6405 58.0007 55.6405C58.4968 55.6398 58.9907 55.5744 59.47 55.4461V45.7878C59.47 44.0886 58.994 42.4235 58.096 40.9811C57.1979 39.5387 55.9137 38.3768 54.389 37.627Z" fill="#022340"/>
<path d="M59.4701 45.7878C59.4701 44.0886 58.9941 42.4235 58.096 40.9811C57.1979 39.5387 55.9137 38.3768 54.389 37.627L42.681 31.8698H38.668V33.626L50.1091 39.2521C51.6338 40.0019 52.918 41.1638 53.8161 42.6062C54.7142 44.0486 55.1902 45.7138 55.1902 47.4129V54.9025C56.4903 55.6379 58.0273 55.8332 59.47 55.4463L59.4701 45.7878Z" fill="#0B1C26"/>
<path d="M5.99916 55.6405C9.16016 55.6405 11.7228 53.078 11.7228 49.9169V48.1748C11.7228 47.3347 11.9502 46.5104 12.381 45.7893C12.8118 45.0681 13.4299 44.4771 14.1695 44.079L21.8424 39.9488C22.8973 39.3809 23.7787 38.538 24.3931 37.5095C25.0075 36.4811 25.3319 35.3054 25.3319 34.1074V31.8698H21.3189L9.61091 37.627C8.08617 38.3768 6.80197 39.5387 5.90389 40.9811C5.00582 42.4235 4.5298 44.0886 4.52979 45.7878V55.4461C5.00907 55.5744 5.50301 55.6397 5.99916 55.6405Z" fill="#022340"/>
<path d="M49.6524 35.2979L42.6809 31.8698H21.3187L14.3472 35.2979C17.6099 40.3156 24.2893 43.7551 31.9998 43.7551C39.7103 43.7551 46.3897 40.3156 49.6524 35.2979Z" fill="#05F283"/>
<path d="M38.334 31.8698L38.4014 33.4948L47.4631 37.9508C48.3034 37.1306 49.0386 36.2423 49.6526 35.2979L42.6811 31.8698H38.334Z" fill="#04C168"/>
<path d="M16.8782 14.4515C14.2264 14.4515 12.0767 16.5244 12.0767 19.0814C12.0767 21.6384 14.2264 23.7112 16.8782 23.7112H19.2408V14.4516L16.8782 14.4515ZM47.1217 14.4515C49.7734 14.4515 51.9232 16.5244 51.9232 19.0814C51.9232 21.6384 49.7734 23.7112 47.1217 23.7112H44.759V14.4516L47.1217 14.4515Z" fill="#D7D0D6"/>
<path d="M16.8086 15.493V30.207C26.7871 34.5351 36.914 34.5514 47.1916 30.207V15.493C47.1916 7.45425 40.6748 0.9375 32.6361 0.9375H31.364C23.3252 0.9375 16.8086 7.45425 16.8086 15.493Z" fill="#F0F0F5"/>
<path d="M32.6361 0.9375H31.3639C30.8743 0.9375 30.3906 0.962125 29.9136 1.00925C37.2713 1.73725 43.0186 7.94375 43.0186 15.4929V31.731C44.4342 31.2931 45.827 30.7844 47.1916 30.2069V15.493C47.1916 7.45425 40.675 0.9375 32.6361 0.9375Z" fill="#E5E1E5"/>
<path d="M32.6585 6.17523H31.3417C24.6948 6.17523 19.0538 8.96123 17.053 12.8272C16.8902 13.7064 16.8084 14.5987 16.8086 15.4929V23.0387C26.6532 28.7392 36.7781 28.8135 47.1916 23.0259V15.4927C47.1916 14.5821 47.1071 13.6914 46.9472 12.8271C44.9463 8.96123 39.3053 6.17523 32.6585 6.17523Z" fill="url(#paint0_linear_28113_345)"/>
<path d="M40.7622 7.7066C42.1908 9.95835 43.0187 12.6289 43.0187 15.493V25.0374C44.4046 24.4716 45.7955 23.802 47.1917 23.026V15.4929C47.1917 14.5822 47.1073 13.6915 46.9473 12.8272C45.8446 10.6967 43.635 8.8956 40.7622 7.7066Z" fill="url(#paint1_linear_28113_345)"/>
<path d="M31.9018 37.2332C26.5386 37.2332 21.2085 36.0925 15.9484 33.811C14.8533 33.336 14.3505 32.063 14.8255 30.968C15.3004 29.8727 16.5738 29.3705 17.6686 29.8451C22.3664 31.8827 27.1506 32.9169 31.8886 32.9188L31.9019 32.9189C36.6515 32.9189 41.5124 31.8821 46.3499 29.8372C47.4494 29.3725 48.7175 29.887 49.1823 30.9866C49.647 32.0861 49.1325 33.3542 48.0329 33.819C42.6484 36.095 37.2584 37.2332 31.9018 37.2332Z" fill="#022340"/>
<path d="M49.1825 30.9864C48.7177 29.8868 47.4495 29.3723 46.3501 29.837C44.4531 30.6389 42.5527 31.2833 40.6567 31.7734C41.9877 31.5479 43.348 32.2535 43.8965 33.5511C44.1288 34.0982 44.1913 34.7025 44.076 35.2855C45.4166 34.8569 46.7371 34.3674 48.0332 33.8188C49.1327 33.3541 49.6472 32.086 49.1825 30.9864Z" fill="#022340"/>
<path d="M42.7407 52.9783C43.3889 51.6818 42.8635 50.1053 41.567 49.4571C40.2706 48.8089 38.6941 49.3344 38.0458 50.6309C37.3976 51.9274 37.923 53.5039 39.2195 54.1522C40.5159 54.8004 42.0924 54.2748 42.7407 52.9783Z" fill="#FD8087"/>
<path d="M22.1641 53.6586C21.0851 53.6586 20.2104 52.784 20.2104 51.705V36.7754C20.2104 34.3991 21.2706 32.1797 23.1188 30.6865L23.4258 30.4384C24.2651 29.7604 25.4952 29.8909 26.1732 30.73C26.8513 31.5692 26.7207 32.7992 25.8816 33.4774L25.5744 33.7256C24.6486 34.4736 24.1176 35.5851 24.1176 36.7752V51.705C24.1177 52.784 23.2429 53.6586 22.1641 53.6586Z" fill="#D7D0D6"/>
<defs>
<linearGradient id="paint0_linear_28113_345" x1="32.0001" y1="6.17523" x2="32.0001" y2="27.3404" gradientUnits="userSpaceOnUse">
<stop stop-color="#05F283"/>
<stop offset="1" stop-color="white"/>
</linearGradient>
<linearGradient id="paint1_linear_28113_345" x1="43.977" y1="7.7066" x2="43.977" y2="25.0374" gradientUnits="userSpaceOnUse">
<stop stop-color="#04C168"/>
<stop offset="1" stop-color="white"/>
</linearGradient>
</defs>
</svg>
